<?xml version="1.0" encoding="UTF-8" standalone="no"?>
<!-- Created with Inkscape (http://www.inkscape.org/) -->

<svg
   xmlns:dc="http://purl.org/dc/elements/1.1/"
   xmlns:cc="http://creativecommons.org/ns#"
   xmlns:rdf="http://www.w3.org/1999/02/22-rdf-syntax-ns#"
   xmlns:svg="http://www.w3.org/2000/svg"
   xmlns="http://www.w3.org/2000/svg"
   xmlns:sodipodi="http://sodipodi.sourceforge.net/DTD/sodipodi-0.dtd"
   xmlns:inkscape="http://www.inkscape.org/namespaces/inkscape"
   version="1.1"
   id="svg995"
   width="628.06781"
   height="509.92755"
   viewBox="0 0 628.06781 509.92755"
   sodipodi:docname="mobile.svg"
   inkscape:version="0.92.3 (2405546, 2018-03-11)">
  <metadata
     id="metadata1001">
    <rdf:RDF>
      <cc:Work
         rdf:about="">
        <dc:format>image/svg+xml</dc:format>
        <dc:type
           rdf:resource="http://purl.org/dc/dcmitype/StillImage" />
        <dc:title></dc:title>
      </cc:Work>
    </rdf:RDF>
  </metadata>
  <defs
     id="defs999" />
  <sodipodi:namedview
     pagecolor="#ffffff"
     bordercolor="#666666"
     borderopacity="1"
     objecttolerance="10"
     gridtolerance="10"
     guidetolerance="10"
     inkscape:pageopacity="0"
     inkscape:pageshadow="2"
     inkscape:window-width="1440"
     inkscape:window-height="837"
     id="namedview997"
     showgrid="false"
     inkscape:zoom="0.921875"
     inkscape:cx="252.60672"
     inkscape:cy="300.79451"
     inkscape:window-x="0"
     inkscape:window-y="30"
     inkscape:window-maximized="1"
     inkscape:current-layer="svg995" />
  <path
     style="fill:#2396f3;fill-opacity:1;stroke:#2396f3;stroke-width:1.08474576;stroke-opacity:1"
     d=""
     id="path2423"
     inkscape:connector-curvature="0" />
  <path
     style="fill:#2396f3;fill-opacity:1;stroke:#2396f3;stroke-width:1.08474576;stroke-opacity:1"
     d=""
     id="path2431"
     inkscape:connector-curvature="0" />
  <path
     style="fill:#2396f3;fill-opacity:1;stroke:#2396f3;stroke-width:1.08474576;stroke-opacity:1"
     d=""
     id="path2433"
     inkscape:connector-curvature="0" />
  <path
     style="fill:#2396f3;fill-opacity:1;stroke:#2396f3;stroke-width:0.19175777;stroke-opacity:1"
     d=""
     id="path2441"
     inkscape:connector-curvature="0" />
  <path
     style="fill:#2396f3;fill-opacity:1;stroke:#2396f3;stroke-width:0.19175777;stroke-opacity:1"
     d=""
     id="path2511"
     inkscape:connector-curvature="0" />
  <g
     id="g2695"
     transform="translate(-1.6135581,-0.19152657)">
    <g
       id="g1614">
      <path
         style="fill:#2396f3;fill-opacity:1;stroke:#2396f3;stroke-width:1.08474576;stroke-opacity:1"
         d="M 31.444071,508.67712 C 18.993901,505.86706 7.969731,496.21519 4.249681,484.86791 2.208561,478.64187 2.155931,472.85115 2.155931,254.48135 V 30.481356 l 2.51993,-6.63791 C 7.258271,17.040926 15.435521,7.4202911 21.138981,4.4743671 28.468531,0.68854914 34.216141,0.50840164 136.6644,0.85344964 l 100.88137,0.33977056 6.21224,3.0505775 c 7.62797,3.7457895 15.2536,12.1357273 18.21522,20.0409623 2.11656,5.649512 2.14881,9.110711 2.14881,230.58642 0,251.74927 0.76781,229.32857 -8.2469,240.81424 -3.8729,4.93449 -6.54718,7.07279 -12.18785,9.74519 l -7.22627,3.42362 -101.42374,0.15628 c -55.783039,0.0859 -102.399989,-0.0641 -103.593209,-0.33339 z M 232.79201,493.10803 c 6.18299,-1.71747 11.05538,-5.55676 13.70291,-10.79748 l 2.44068,-4.83126 V 255.30141 c 0,-241.661136 0.38147,-226.209386 -5.74669,-232.772724 -5.05685,-5.415943 -7.7365,-6.058717 -27.08966,-6.498056 -23.30269,-0.528998 -23.29879,-0.530991 -27.26338,13.918781 -2.79084,10.17177 -0.40654,9.752284 -55.43036,9.752284 H 86.006781 l -3.59081,-3.590808 c -2.63161,-2.631615 -3.7986,-4.976469 -4.36869,-8.778129 -0.43746,-2.917169 -1.86361,-6.44897 -3.25876,-8.070209 l -2.48087,-2.882888 h -19.88942 c -22.89722,0 -26.09433,0.881414 -31.10003,8.574017 l -2.89108,4.442932 -0.27886,224.36228 c -0.30593,246.15684 -0.76937,227.71738 5.89051,234.37725 6.03122,6.03123 3.58383,5.89602 108.286649,5.98234 61.59943,0.0508 97.96273,-0.31494 100.46659,-1.01045 z"
         id="path1594"
         inkscape:connector-curvature="0" />
      <g
         id="g1602"
         transform="translate(4.5084752,3.4237288)">
        <path
           inkscape:connector-curvature="0"
           id="path1596"
           d="m 116.05424,294.76821 c -4.75718,-2.93849 -6.47207,-5.2125 -10.75198,-14.25756 -5.755249,-12.16299 -7.011388,-26.95191 -2.92624,-34.45158 1.94365,-3.56823 8.26435,-8.67945 12.34205,-9.98037 3.57256,-1.13976 4.96262,-0.99023 11.03309,1.18688 l 6.94554,2.49094 7.01225,-2.47553 c 6.02053,-2.12543 7.64102,-2.30623 11.45809,-1.2784 2.4452,0.65843 5.73229,2.30371 7.30464,3.65619 l 2.85882,2.45905 -3.41004,4.83786 c -6.13198,8.69952 -5.47658,18.41165 1.7137,25.39477 l 3.91156,3.79885 -1.91291,5.00888 c -2.22213,5.81857 -7.138,11.79247 -11.6046,14.10224 -2.85979,1.47885 -3.6824,1.41515 -9.60318,-0.74368 l -6.47547,-2.36107 -6.85464,2.31538 c -8.21133,2.77365 -7.08068,2.74322 -11.04068,0.29715 z"
           style="fill:#2396f3;fill-opacity:1;stroke:#2396f3;stroke-width:1.08474576;stroke-opacity:1" />
        <path
           inkscape:connector-curvature="0"
           id="path1598"
           d="m 133.4812,228.71864 c 0.84952,-4.85539 4.8912,-9.30446 10.60366,-11.67246 l 4.16621,-1.72703 -0.77566,3.5811 c -1.35664,6.26334 -8.45235,13.88619 -12.92591,13.88619 -1.46026,0 -1.65216,-0.73071 -1.0683,-4.0678 z"
           style="fill:#2396f3;fill-opacity:1;stroke:#2396f3;stroke-width:1.08474576;stroke-opacity:1" />
      </g>
      <text
         xml:space="preserve"
         style="font-style:normal;font-weight:normal;font-size:40px;line-height:1.25;font-family:sans-serif;letter-spacing:0px;word-spacing:0px;fill:#000000;fill-opacity:1;stroke:none"
         x="112.81356"
         y="343.86441"
         id="text1606"><tspan
           sodipodi:role="line"
           id="tspan1604"
           x="112.81356"
           y="343.86441"
           style="font-style:normal;font-variant:normal;font-weight:300;font-stretch:normal;font-family:Roboto;-inkscape-font-specification:'Roboto Light';fill:#2396f3;fill-opacity:1">&lt;|&gt;</tspan></text>
    </g>
    <g
       transform="matrix(1,0,0,1.0086735,0,-10.471833)"
       id="g2651">
      <text
         id="text1606-6"
         y="348.1922"
         x="476.11978"
         style="font-style:normal;font-weight:normal;font-size:40px;line-height:1.25;font-family:sans-serif;letter-spacing:0px;word-spacing:0px;fill:#000000;fill-opacity:1;stroke:none"
         xml:space="preserve"
         inkscape:transform-center-x="-36.881356"
         inkscape:transform-center-y="1.0847458"><tspan
           style="font-style:normal;font-variant:normal;font-weight:300;font-stretch:normal;font-family:Roboto;-inkscape-font-specification:'Roboto Light';fill:#2396f3;fill-opacity:1"
           y="348.1922"
           x="476.11978"
           id="tspan1604-7"
           sodipodi:role="line">&lt;|&gt;</tspan></text>
      <g
         id="g2565"
         transform="translate(41.220337,10.847457)">
        <path
           inkscape:connector-curvature="0"
           id="path2234"
           d="m 344.39322,504.05373 c -9.50301,-2.93787 -18.86122,-11.22592 -23.14751,-20.50046 l -2.34401,-5.07191 v -224 -224.000004 l 2.34401,-5.071913 c 3.26786,-7.070891 10.75712,-14.85661 17.18141,-17.8615157 l 5.42373,-2.5369034 h 109.55932 109.55932 l 5.42373,2.5369034 c 6.42429,3.0049057 13.91356,10.7906247 17.18141,17.8615157 l 2.34401,5.071913 v 224.000004 224 l -2.34401,5.07191 c -3.15999,6.83749 -10.4864,14.56496 -17.13786,18.07602 l -5.46728,2.88596 -107.9322,0.18842 c -59.36271,0.10364 -109.15254,-0.18884 -110.64407,-0.64994 z M 475.13539,489.66 c 2.9141,-1.32774 5.9358,-5.91398 5.9358,-9.00915 0,-3.26471 -3.15032,-7.82935 -6.30545,-9.13624 -2.18629,-0.9056 -9.38466,-1.20199 -23.4694,-0.96636 l -20.31589,0.33989 -2.61565,3.04353 c -3.91507,4.55553 -3.60961,10.57132 0.72182,14.21597 3.32554,2.79827 3.40863,2.80829 23.27099,2.80829 13.14425,0 20.90227,-0.44138 22.77778,-1.29593 z M 578.69831,246.88814 V 44.040678 H 453.41017 328.12203 V 246.88814 449.73559 H 453.41017 578.69831 Z M 420.15908,30.210169 c 1.5246,-2.909491 -0.40394,-6.779661 -3.37836,-6.779661 -1.39143,0 -3.11564,0.585763 -3.83157,1.301695 -1.40312,1.403128 -1.75716,5.47448 -0.57853,6.653107 1.49158,1.491581 6.8117,0.688869 7.78846,-1.175141 z m 61.79771,-2.169491 -0.34323,-2.983051 -27.78443,-0.2892 c -23.64966,-0.246163 -27.98591,-0.04644 -29.13831,1.342118 -0.74463,0.897225 -1.07051,2.369738 -0.72419,3.272251 0.54024,1.407834 4.72817,1.640933 29.48155,1.640933 h 28.85185 z"
           style="fill:#2396f3;fill-opacity:1;stroke:#2396f3;stroke-width:1.08474576;stroke-opacity:1" />
        <g
           id="g2595"
           transform="matrix(0.51533685,0,0,0.53847263,226.83531,115.78921)">
          <path
             style="fill:#2396f3;fill-opacity:1;stroke:#2396f3;stroke-width:1.08474576;stroke-opacity:1"
             d="m 406.73522,218.95593 c 0.41412,-2.23729 1.52158,-5.69899 2.46101,-7.69268 2.12564,-4.51104 11.0271,-14.35639 14.81094,-16.38144 1.5547,-0.83205 2.82673,-2.1083 2.82673,-2.83611 0,-0.72781 0.61017,-1.27241 1.35593,-1.21022 0.74576,0.0622 4.95457,-1.03398 9.35289,-2.43594 9.62595,-3.06824 21.14878,-2.73518 30.24033,0.87408 3.1322,1.24345 5.69492,2.06082 5.69492,1.81636 0,-0.24445 1.27922,0.61691 2.84272,1.91413 9.73585,8.07779 12.63697,11.38035 16.12934,18.36118 6.43059,12.854 10.66896,11.65844 -41.33007,11.65844 h -45.13768 z m 25.94982,-8.13559 c 1.54432,-2.4664 -0.28745,-5.56084 -3.58095,-6.04937 -4.51317,-0.66945 -7.2826,4.12849 -4.17612,7.23497 1.82813,1.82812 6.29781,1.14497 7.75707,-1.1856 z m 41.86598,0.82764 c 0.76781,-0.92514 1.04693,-2.77552 0.65453,-4.33898 -1.1642,-4.63852 -9.3208,-3.22696 -9.3208,1.61303 0,4.03028 6.01385,5.92192 8.66627,2.72595 z"
             id="path2415"
             inkscape:connector-curvature="0" />
          <path
             style="fill:#2396f3;fill-opacity:1;stroke:#2396f3;stroke-width:1.08474576;stroke-opacity:1"
             d="m 426.75046,343.51395 -3.1708,-3.17079 v -15.26989 -15.26988 h -6.36219 c -4.79393,0 -7.06671,-0.55418 -9.22033,-2.24822 l -2.85816,-2.24822 V 267.41957 229.5322 h 46.1017 46.10169 v 37.88737 37.88738 l -2.85815,2.24822 c -2.21159,1.73964 -4.42007,2.24822 -9.76271,2.24822 h -6.90456 v 14.69794 c 0,11.02148 -0.41193,15.49453 -1.64685,17.88258 -2.71208,5.24459 -10.09009,5.66365 -14.59431,0.82892 -1.99709,-2.14362 -2.19952,-3.78965 -2.19952,-17.88517 v -15.52427 h -8.67796 -8.67797 v 15.77812 c 0,15.30575 -0.0797,15.85783 -2.66256,18.44067 -3.73215,3.73216 -8.56163,3.53747 -12.60732,-0.50823 z"
             id="path2417"
             inkscape:connector-curvature="0" />
          <path
             style="fill:#2396f3;fill-opacity:1;stroke:#2396f3;stroke-width:1.08474576;stroke-opacity:1"
             d="m 507.01108,287.80279 c -3.84968,-2.95569 -4.24498,-5.75675 -4.24498,-30.07933 V 233.7043 l 3.1708,-3.17079 c 1.9115,-1.91151 4.31409,-3.1708 6.04954,-3.1708 1.73545,0 4.13804,1.25929 6.04954,3.1708 l 3.1708,3.17079 v 24.57367 24.57366 l -3.1708,3.17079 c -3.39165,3.39166 -7.96445,4.1301 -11.0249,1.78037 z"
             id="path2419"
             inkscape:connector-curvature="0" />
          <path
             style="fill:#2396f3;fill-opacity:1;stroke:#2396f3;stroke-width:1.08474576;stroke-opacity:1"
             d="m 383.93713,286.53066 -2.66255,-2.66256 v -25.59013 -25.59014 l 2.66255,-2.66256 c 3.29376,-3.29375 7.96667,-3.45734 11.83523,-0.41434 l 2.85815,2.24823 v 26.41881 26.41881 l -2.85815,2.24822 c -3.86856,3.04301 -8.54147,2.87941 -11.83523,-0.41434 z"
             id="path2421"
             inkscape:connector-curvature="0" />
          <path
             style="fill:#2396f3;fill-opacity:1;stroke:#2396f3;stroke-width:1.08474576;stroke-opacity:1"
             d="m 422.09948,185.67202 c -0.97573,-1.48916 -1.76583,-3.3349 -1.75578,-4.10165 0.01,-0.76676 1.04721,0.21281 2.30481,2.1768 1.25759,1.96399 2.04769,3.80974 1.75578,4.10165 -0.29191,0.29191 -1.32908,-0.68765 -2.30481,-2.1768 z"
             id="path2425"
             inkscape:connector-curvature="0" />
          <path
             style="fill:#2396f3;fill-opacity:1;stroke:#2396f3;stroke-width:1.08474576;stroke-opacity:1"
             d="m 406.22373,221.04747 c 0,-6.16763 3.84905,-12.81681 12.38272,-21.39098 8.65516,-8.69624 8.89083,-8.84219 18.0253,-11.16278 12.08493,-3.07015 19.54176,-2.98504 30.07787,0.34332 11.44421,3.61522 19.92382,11.09196 25.91108,22.84661 4.06983,7.9902 4.12415,8.24618 2.07367,9.77261 -1.75344,1.3053 -9.32846,1.56748 -45.28814,1.56748 -41.0519,0 -43.1825,-0.0975 -43.1825,-1.97626 z m 25.10017,-9.95594 2.56085,-2.1695 -2.56085,-2.16949 c -1.40847,-1.19322 -2.96005,-2.16949 -3.44795,-2.16949 -1.1717,0 -4.29629,3.15564 -4.29629,4.33898 0,1.18335 3.12459,4.33899 4.29629,4.33899 0.4879,0 2.03948,-0.97627 3.44795,-2.16949 z m 41.96974,1.22162 c 0.81949,-0.51952 1.28811,-2.26968 1.08475,-4.05119 -0.42391,-3.71347 -3.97722,-4.78614 -6.73132,-2.03204 -2.19967,2.19968 -2.21023,3.17399 -0.0577,5.3265 1.90046,1.90045 3.55411,2.11982 5.7043,0.75673 z"
             id="path2427"
             inkscape:connector-curvature="0" />
          <path
             style="fill:#2396f3;fill-opacity:1;stroke:#2396f3;stroke-width:1.08474576;stroke-opacity:1"
             d="m 421.89228,185.66026 c -1.0234,-1.56191 -1.58955,-3.11102 -1.2581,-3.44247 0.33145,-0.33145 1.43997,0.67529 2.46337,2.2372 1.0234,1.56191 1.58955,3.11102 1.2581,3.44247 -0.33145,0.33145 -1.43997,-0.67529 -2.46337,-2.2372 z"
             id="path2429"
             inkscape:connector-curvature="0" />
          <path
             style="fill:#2396f3;fill-opacity:1;stroke:#2396f3;stroke-width:0.19175777;stroke-opacity:1"
             d="m 427.14758,190.09899 c 0,-0.10003 -0.21572,-0.41465 -0.47939,-0.69915 -0.26367,-0.2845 -0.47356,-0.65569 -0.46642,-0.82485 0.009,-0.21523 0.0754,-0.17804 0.22106,0.12388 0.11445,0.2373 0.27897,0.43145 0.36562,0.43145 0.0866,0 0.29139,0.25888 0.45501,0.57528 0.16941,0.32759 0.21281,0.57527 0.1008,0.57527 -0.10817,0 -0.19668,-0.0819 -0.19668,-0.18188 z"
             id="path2435"
             inkscape:connector-curvature="0" />
          <path
             style="fill:#2396f3;fill-opacity:1;stroke:#2396f3;stroke-width:0.19175777;stroke-opacity:1"
             d="m 426.08901,190.90115 c -0.10761,-0.0775 -0.29992,-0.37819 -0.42734,-0.66822 -0.12743,-0.29003 -0.35318,-0.52733 -0.50167,-0.52733 -0.36334,0 -0.52045,-1.15325 -0.2167,-1.59065 0.20737,-0.29861 0.2541,-0.30496 0.35273,-0.0479 0.0625,0.16296 0.23649,0.29628 0.38656,0.29628 0.15008,0 0.32625,0.21269 0.39149,0.47264 0.0652,0.25995 0.34236,0.69636 0.61581,0.96981 0.47738,0.47739 0.48376,0.51201 0.16008,0.86967 -0.36863,0.40733 -0.46787,0.43677 -0.76096,0.22574 z"
             id="path2437"
             inkscape:connector-curvature="0" />
          <path
             style="fill:#2396f3;fill-opacity:1;stroke:#2396f3;stroke-width:0.19175777;stroke-opacity:1"
             d="m 405.57133,222.54411 c 0.0581,-0.50096 0.19071,-1.80664 0.29474,-2.90149 0.542,-5.70424 4.09038,-11.86687 11.0469,-19.18563 1.89174,-1.99025 6.52627,-6.30069 8.40063,-7.81318 0.95905,-0.7739 1.74944,-1.89036 1.18489,-1.67372 -0.38057,0.14604 -1.71206,-1.58845 -1.69446,-2.20732 0.0134,-0.47267 -0.0387,-0.51291 -0.56442,-0.43574 -0.50164,0.0736 -0.71373,-0.0572 -1.58329,-0.97677 -2.22327,-2.35107 -3.58703,-6.46552 -2.14304,-6.46552 0.55614,0 1.51818,1.02867 2.80369,2.99788 0.80272,1.22964 1.72128,3.19834 1.72128,3.68914 0,0.0841 0.25887,0.38352 0.57527,0.66543 0.3164,0.28192 0.57527,0.41375 0.57527,0.29297 0,-0.12078 0.25888,0.10615 0.57528,0.50428 0.61486,0.77371 0.69188,1.05312 0.37706,1.36794 -0.30657,0.30656 1.5399,-0.0896 3.74573,-0.80368 2.39841,-0.77642 8.93056,-2.42989 11.60134,-2.93664 3.16556,-0.60062 5.77123,-0.8269 9.39614,-0.81596 6.17076,0.0186 10.93508,0.96499 17.73157,3.52216 1.68416,0.63366 3.37996,1.19474 3.76846,1.24685 0.47289,0.0634 1.20376,0.47213 2.21123,1.23653 0.82769,0.62798 2.49723,1.88769 3.7101,2.79936 3.82963,2.8786 7.82537,7.14132 10.64288,11.35401 1.23161,1.84147 5.3695,9.55436 6.1713,11.50309 0.50254,1.2214 0.56893,2.65622 0.15955,3.44788 -0.6498,1.25658 -3.3489,1.96168 -8.82403,2.30515 -1.88398,0.11819 -18.29805,0.19274 -42.52889,0.19315 l -39.46076,6.8e-4 z m 66.66109,-10.23874 c 1.15235,-0.49573 1.52541,-1.11438 1.6548,-2.74418 0.11935,-1.50328 -0.20364,-2.65225 -0.98535,-3.50526 -0.54294,-0.59244 -0.77161,-0.69719 -1.68783,-0.77317 -1.33702,-0.11088 -2.16795,0.26042 -3.41269,1.52496 -1.0409,1.05745 -1.44011,1.85409 -1.26958,2.53353 0.17362,0.69176 1.91859,2.5103 2.85215,2.97241 1.02857,0.50913 1.64992,0.50732 2.8485,-0.008 z m -42.40218,-0.6572 c 1.73214,-1.27513 2.87832,-2.3821 2.87832,-2.77986 0,-0.19776 -0.5838,-0.82817 -1.35362,-1.4617 -1.94558,-1.60112 -2.84953,-2.16863 -3.45427,-2.16863 -0.6346,0 -1.86639,0.90249 -2.87898,2.10933 -1.08729,1.29586 -1.11058,1.65502 -0.18708,2.88408 1.89175,2.51769 3.05284,2.84698 4.99563,1.41678 z m -2.87442,-21.82322 c 0,-0.0398 -0.151,-0.19082 -0.33557,-0.33557 -0.30414,-0.23852 -0.31092,-0.23174 -0.0724,0.0724 0.25051,0.31942 0.40797,0.421 0.40797,0.26317 z"
             id="path2439"
             inkscape:connector-curvature="0" />
          <path
             style="fill:#2396f3;fill-opacity:1;stroke:#2396f3;stroke-width:0.19175777;stroke-opacity:1"
             d="m 474.41587,190.82159 c -0.6365,-0.3942 -0.64998,-0.56541 -0.0917,-1.16464 0.20864,-0.22395 0.37935,-0.52888 0.37935,-0.67761 0,-0.14873 0.2373,-0.50873 0.52733,-0.79999 0.81902,-0.8225 1.58201,-1.95095 1.58201,-2.33979 0,-0.19395 0.13384,-0.35264 0.29742,-0.35264 0.16358,0 0.41533,-0.28219 0.55944,-0.6271 0.14411,-0.34491 0.43684,-0.78531 0.6505,-0.97867 0.21366,-0.19337 0.44337,-0.6015 0.51046,-0.90696 0.0671,-0.30546 0.2467,-0.55539 0.39913,-0.55539 0.15243,0 0.35545,-0.20595 0.45115,-0.45767 0.15978,-0.42024 1.0595,-1.45991 1.2634,-1.45991 0.0479,0 0.0872,0.46879 0.0872,1.04175 0,0.85819 -0.0648,1.0623 -0.36749,1.15838 -0.20212,0.0642 -0.4565,0.37198 -0.5653,0.68407 -0.1088,0.3121 -0.29344,0.56744 -0.41033,0.56744 -0.11688,0 -0.38019,0.37906 -0.58512,0.84235 -0.20494,0.46329 -0.5021,0.89204 -0.66037,0.95277 -0.15827,0.0607 -0.28776,0.27579 -0.28776,0.4779 0,0.20212 -0.21573,0.50883 -0.47939,0.68159 -0.26367,0.17277 -0.4794,0.4297 -0.4794,0.57096 0,0.14127 -0.25887,0.5826 -0.57527,0.98074 -0.3164,0.39814 -0.57528,0.83153 -0.57528,0.9631 0,0.13157 -0.20981,0.37669 -0.46625,0.54472 -0.25644,0.16802 -0.49374,0.50921 -0.52733,0.75819 l -0.0611,0.4527 z"
             id="path2443"
             inkscape:connector-curvature="0" />
          <path
             style="fill:#2396f3;fill-opacity:1;stroke:#2396f3;stroke-width:0.19175777;stroke-opacity:1"
             d="m 489.66062,223.25638 c 0.68553,-0.0771 2.41135,-0.15137 3.83515,-0.16514 3.22416,-0.0312 3.52134,-0.0984 3.38518,-0.7659 -0.0561,-0.27518 -0.15473,-0.75919 -0.2191,-1.07559 l -0.11705,-0.57527 0.3082,0.53667 c 0.17547,0.30555 0.28282,0.84197 0.24925,1.24556 -0.077,0.92601 -0.22655,0.9546 -4.94878,0.94633 -2.61424,-0.005 -3.36427,-0.0487 -2.49285,-0.14666 z"
             id="path2445"
             inkscape:connector-curvature="0" />
          <path
             style="fill:#2396f3;fill-opacity:1;stroke:#2396f3;stroke-width:0.19175777;stroke-opacity:1"
             d="m 493.93301,222.7385 c 0.50415,-0.0396 1.28077,-0.0391 1.72582,0.001 0.44505,0.0402 0.0326,0.0726 -0.91663,0.0721 -0.9492,-5.8e-4 -1.31334,-0.0335 -0.80919,-0.0731 z"
             id="path2447"
             inkscape:connector-curvature="0" />
          <path
             style="fill:#2396f3;fill-opacity:1;stroke:#2396f3;stroke-width:0.19175777;stroke-opacity:1"
             d="m 495.16622,222.5478 -0.72653,-0.0757 0.82241,-0.44134 c 0.45232,-0.24273 0.83184,-0.43148 0.84337,-0.41943 0.0115,0.012 0.0779,0.25919 0.14747,0.54923 0.089,0.37109 0.0544,0.51778 -0.11685,0.4951 -0.13384,-0.0177 -0.57028,-0.0663 -0.96987,-0.1079 z"
             id="path2449"
             inkscape:connector-curvature="0" />
          <path
             style="fill:#2396f3;fill-opacity:1;stroke:#2396f3;stroke-width:0.19175777;stroke-opacity:1"
             d="m 425.83694,223.50203 -20.39054,-0.0488 0.12285,-1.48525 c 0.21602,-2.61159 0.49704,-4.32176 0.96978,-5.90184 0.57948,-1.93679 2.2573,-5.37263 3.63376,-7.44122 2.5832,-3.88209 7.18273,-8.95526 12.12378,-13.37222 1.34824,-1.20523 2.85973,-2.58678 3.35887,-3.07011 l 0.90752,-0.87879 -0.84595,-0.9084 c -0.46527,-0.49963 -0.90148,-1.16124 -0.96935,-1.47025 -0.10109,-0.46025 -0.22177,-0.56185 -0.66735,-0.56185 -1.16875,0 -3.57299,-3.41378 -4.06262,-5.76854 -0.26438,-1.27145 -0.1403,-1.71001 0.48381,-1.71001 1.02288,0 3.66637,3.72504 4.52575,6.37742 0.19784,0.61059 0.74799,1.16479 1.18152,1.19022 0.26834,0.0157 1.13057,1.24489 1.13057,1.61168 0,0.49357 0.253,0.45484 3.66214,-0.56067 10.12732,-3.01671 16.95203,-4.07187 23.49139,-3.63198 3.10956,0.20917 3.2513,0.22742 6.21232,0.79998 2.41511,0.46699 5.27989,1.31714 9.13153,2.70985 3.34024,1.20779 4.09976,1.39379 4.09976,1.00401 0,-0.34736 0.62929,-1.34167 1.77308,-2.80155 0.50059,-0.63893 0.96298,-1.37209 1.02752,-1.62924 0.0645,-0.25714 0.1932,-0.46754 0.28591,-0.46754 0.15986,0 0.76346,-0.82441 1.61155,-2.20112 0.61502,-0.99836 2.04438,-2.78458 2.22826,-2.78458 0.0928,0 0.16872,0.4746 0.16872,1.05467 0,0.58007 -0.0852,1.05467 -0.18936,1.05467 -0.10414,0 -0.40261,0.32359 -0.66326,0.71909 -0.26065,0.3955 -0.82263,1.22397 -1.24883,1.84104 -0.42621,0.61708 -0.77492,1.18398 -0.77492,1.25979 0,0.0758 -0.19415,0.31545 -0.43146,0.53255 -0.2373,0.21709 -0.69032,0.84692 -1.00672,1.39962 -0.3164,0.55269 -0.81258,1.28651 -1.10261,1.63069 -0.29003,0.34419 -0.52733,0.79703 -0.52733,1.00631 0,0.26668 0.93218,1.08943 3.11606,2.75025 1.88446,1.43312 4.10718,3.35697 5.62367,4.86751 4.6939,4.67548 6.73527,7.67359 11.01155,16.17242 1.40418,2.7907 1.59062,3.28693 1.72911,4.60219 0.0854,0.81082 0.26776,1.84463 0.40529,2.29736 0.29026,0.95549 0.11756,1.38651 -0.63632,1.58813 -0.26719,0.0714 -7.76791,0.14715 -16.66826,0.16822 -8.90035,0.0211 -20.06554,0.0533 -24.81155,0.0717 -4.746,0.0184 -17.80484,0.0114 -29.01964,-0.0154 z m 64.53877,-0.35468 c -0.0637,-0.0637 -0.22911,-0.0705 -0.36753,-0.0151 -0.15297,0.0612 -0.10754,0.10665 0.11585,0.11585 0.20214,0.008 0.3154,-0.037 0.25168,-0.10071 z m 5.99643,-0.25049 c 0.40721,-0.11583 0.46981,-0.23234 0.41573,-0.77371 -0.12038,-1.20526 -0.25733,-1.32086 -0.84849,-0.71625 -0.41891,0.42845 -0.45197,0.51634 -0.15928,0.42344 0.26734,-0.0849 0.40494,-0.005 0.4982,0.28876 0.0709,0.22328 0.0745,0.46031 0.008,0.52672 -0.0664,0.0664 -0.6999,0.13894 -1.40775,0.16117 -1.14952,0.0361 -1.19483,0.0247 -0.42409,-0.1064 0.61459,-0.10457 0.72496,-0.16379 0.38351,-0.20582 -0.59389,-0.0731 -0.55599,-0.0774 -2.30109,0.26219 l -1.43818,0.27988 2.39697,-0.002 c 1.31833,-9.6e-4 2.6127,-0.0632 2.87636,-0.13817 z M 472.4464,212.11597 c 0.98631,-0.49925 1.35889,-1.30503 1.36264,-2.94696 0.006,-2.83939 -1.56648,-4.36749 -3.86001,-3.7499 -0.96092,0.25874 -2.55367,1.6648 -3.07153,2.71149 -0.51349,1.03785 -0.33268,1.52392 1.09086,2.9326 1.6792,1.66169 2.76897,1.91788 4.47804,1.05277 z m -43.14913,-0.22708 c 0.89548,-0.52707 2.66807,-2.00222 3.11439,-2.59179 0.33013,-0.43609 0.32494,-0.46148 -0.20962,-1.02459 -0.80872,-0.8519 -3.47192,-2.8233 -3.98956,-2.95322 -0.75025,-0.1883 -1.79485,0.5278 -3.22217,2.2089 -1.09272,1.28699 -0.98181,1.80407 0.79884,3.72427 1.23497,1.33176 2.06954,1.48317 3.50812,0.63643 z"
             id="path2451"
             inkscape:connector-curvature="0" />
          <path
             style="fill:#2396f3;fill-opacity:1;stroke:#2396f3;stroke-width:0.19175777;stroke-opacity:1"
             d="m 407.10444,223.5191 -1.73028,-0.0774 0.23596,-2.34241 c 0.41135,-4.08355 1.15591,-6.56112 2.98019,-9.91684 2.38244,-4.38246 6.99575,-9.86547 12.61278,-14.99057 1.4238,-1.29911 3.18085,-2.92892 3.90454,-3.62181 l 1.31581,-1.2598 -0.60288,-0.65853 c -0.33159,-0.36219 -0.75112,-0.97803 -0.9323,-1.36853 -0.23246,-0.50105 -0.49125,-0.74684 -0.87932,-0.83517 -1.61666,-0.36795 -4.30527,-4.83969 -4.11266,-6.84024 0.0498,-0.5169 0.14966,-0.63754 0.56797,-0.68597 0.37933,-0.0439 0.68603,0.12496 1.21379,0.66839 1.03058,1.06114 2.36874,3.15313 3.02403,4.72756 0.60976,1.465 1.01013,2.04549 1.41081,2.04549 0.26214,0 1.08801,1.01442 1.28796,1.582 0.065,0.18457 0.25508,0.33558 0.42236,0.33558 0.16727,0 1.78793,-0.42694 3.60147,-0.94875 10.66479,-3.06861 16.64953,-3.96595 23.29163,-3.49229 5.04087,0.35947 9.06479,1.2857 15.09739,3.4751 1.47653,0.53588 2.98662,1.01968 3.35576,1.0751 0.62703,0.0942 0.69293,0.0529 1.00243,-0.6274 0.18221,-0.4005 0.78624,-1.34778 1.34231,-2.10505 1.00464,-1.36817 1.16171,-1.59492 2.63282,-3.8006 0.87406,-1.3105 0.81805,-1.23413 1.79474,-2.44691 0.40256,-0.49986 0.81244,-0.90885 0.91085,-0.90885 0.32687,0 0.2088,2.03758 -0.13459,2.32256 -0.29403,0.24403 -1.24207,1.5969 -4.32329,6.16942 -0.70457,1.04558 -1.23888,2.01091 -1.18735,2.14519 0.0515,0.13427 0.62799,0.66802 1.28103,1.18611 4.5856,3.63798 6.03733,4.8864 7.91644,6.80774 4.28855,4.38493 6.39585,7.5288 10.45504,15.59774 1.35666,2.69683 1.57964,3.28859 1.84249,4.88983 0.46967,2.86118 0.44478,3.29674 -0.20634,3.61103 -0.45892,0.22151 -7.57737,0.27234 -44.10428,0.31489 -23.95637,0.0279 -44.33566,0.0159 -45.28731,-0.0266 z m 86.68744,-0.6257 c -0.0605,-0.0979 0.0423,-0.21456 0.22838,-0.25919 0.18613,-0.0446 -0.007,-0.0398 -0.42861,0.0108 -1.30184,0.15596 -1.66295,0.40048 -0.61189,0.41433 0.52156,0.007 0.87436,-0.0652 0.81212,-0.16589 z m 2.84545,-0.84154 c -0.0271,-0.8694 -0.15849,-1.0335 -0.56031,-0.70002 -0.27541,0.22857 -0.27585,0.26859 -0.005,0.42037 0.35859,0.20067 0.39726,0.83963 0.0601,0.99224 -0.13184,0.0597 -0.0671,0.0855 0.14381,0.0575 0.31111,-0.0413 0.37928,-0.18674 0.36107,-0.77011 z m -24.41936,-9.95854 c 1.07006,-0.53961 1.52644,-1.38583 1.52538,-2.82843 -0.001,-1.49293 -0.32339,-2.47245 -1.05389,-3.20295 -0.57343,-0.57343 -0.73828,-0.63221 -1.77316,-0.63221 -1.28479,0 -2.03875,0.42331 -3.3509,1.88132 -1.26422,1.40476 -1.20753,2.01665 0.33298,3.59454 1.6224,1.66176 2.75951,1.97443 4.31959,1.18773 z m -43.19311,-0.12539 c 1.08334,-0.55593 3.38861,-2.57185 3.45391,-3.0204 0.0406,-0.2787 -0.21712,-0.62673 -0.86291,-1.16543 -1.67784,-1.39958 -3.17818,-2.35237 -3.70426,-2.35237 -0.64161,0 -1.83347,0.84891 -2.73284,1.94647 -1.07148,1.3076 -1.07708,1.62516 -0.0526,2.98796 1.44472,1.9219 2.46273,2.34066 3.89874,1.60377 z"
             id="path2453"
             inkscape:connector-curvature="0" />
          <path
             style="fill:#2396f3;fill-opacity:1;stroke:#2396f3;stroke-width:0.19175777;stroke-opacity:1"
             d="m 405.42522,223.52316 c -0.14661,-0.23723 0.37367,-4.81586 0.71398,-6.28327 1.47821,-6.3739 6.57752,-13.34452 16.27,-22.24064 l 3.94741,-3.62309 -0.85094,-1.04462 c -0.46802,-0.57454 -0.85094,-1.1621 -0.85094,-1.3057 0,-0.1436 -0.37932,-0.42888 -0.84295,-0.63396 -1.0442,-0.4619 -2.22422,-1.90112 -3.15135,-3.84354 -0.80845,-1.69379 -1.05028,-3.3877 -0.51306,-3.59385 1.01171,-0.38823 2.67596,1.49671 4.42502,5.01183 0.75669,1.52073 1.2054,2.19847 1.60802,2.42876 0.30715,0.17568 0.78094,0.67186 1.05286,1.10261 0.27192,0.43075 0.52658,0.78318 0.56592,0.78318 0.0393,0 1.56992,-0.42493 3.4013,-0.94429 10.45286,-2.96433 15.66079,-3.81755 21.93027,-3.59287 5.52737,0.19809 8.8692,0.88372 16.10177,3.30354 4.07654,1.36389 4.41927,1.44817 4.60219,1.13167 0.29673,-0.51343 1.54642,-2.3875 3.44843,-5.17139 1.81351,-2.65436 3.28126,-4.50631 3.57144,-4.50631 0.0973,0 0.17693,0.42368 0.17693,0.9415 0,0.86273 -0.12202,1.11544 -1.4582,3.02019 -2.8805,4.10621 -4.33454,6.39591 -4.23174,6.66379 0.0574,0.14967 1.42588,1.33371 3.041,2.63119 7.96342,6.39733 11.10105,10.31636 15.99835,19.98262 1.88636,3.72329 2.04951,4.13582 2.38889,6.04036 0.48843,2.74107 0.47729,3.01925 -0.13705,3.42178 -0.47559,0.31162 -3.26159,0.33668 -45.80398,0.41189 -26.5139,0.0469 -45.34154,0.009 -45.40357,-0.0914 z m 88.21038,-0.75932 c -0.0637,-0.0637 -0.22912,-0.0705 -0.36754,-0.0151 -0.15297,0.0612 -0.10753,0.10665 0.11585,0.11585 0.20215,0.008 0.3154,-0.037 0.25169,-0.10072 z m 2.9283,-0.74706 c 0,-0.46874 -0.0867,-0.67115 -0.28764,-0.67115 -0.32564,0 -0.38569,0.30028 -0.0959,0.47939 0.10547,0.0652 0.19176,0.28601 0.19176,0.49071 0,0.20471 0.0431,0.3722 0.0959,0.3722 0.0527,0 0.0959,-0.30202 0.0959,-0.67115 z m -24.27741,-10.03383 c 1.0669,-0.61699 1.36349,-1.24811 1.35165,-2.87623 -0.012,-1.65412 -0.29504,-2.37663 -1.24355,-3.17475 -1.40708,-1.18398 -3.95096,-0.17392 -5.28193,2.0972 -0.44694,0.76265 -0.46201,0.86645 -0.2119,1.45983 0.32006,0.75934 1.99354,2.36838 2.86804,2.7576 0.71245,0.31709 1.6906,0.21466 2.51769,-0.26365 z m -42.87646,-0.34773 c 0.45334,-0.2639 1.35939,-0.98422 2.01345,-1.60073 l 1.1892,-1.12092 -0.57527,-0.60672 c -0.80991,-0.85417 -3.01143,-2.46036 -3.70248,-2.70127 -0.79087,-0.27569 -1.42052,0.0745 -2.78641,1.54986 -1.50026,1.62045 -1.46559,2.03221 0.33686,4.00169 1.15183,1.25856 1.98883,1.37209 3.52465,0.47809 z"
             id="path2455"
             inkscape:connector-curvature="0" />
          <path
             style="fill:#2396f3;fill-opacity:1;stroke:#2396f3;stroke-width:0.19175777;stroke-opacity:1"
             d="m 405.38344,222.35236 c 0.47024,-4.80147 0.96655,-6.77473 2.49591,-9.92347 2.30462,-4.74488 6.27507,-9.69031 12.47301,-15.53589 1.67532,-1.58007 3.69465,-3.49363 4.4874,-4.25236 l 1.44137,-1.3795 -0.50243,-0.53808 c -0.27634,-0.29594 -0.72965,-0.90481 -1.00736,-1.35304 -0.27772,-0.44823 -0.64227,-0.81497 -0.81012,-0.81497 -0.57403,0 -2.45514,-2.16846 -3.21478,-3.70586 -0.90944,-1.84056 -1.1615,-3.61157 -0.55984,-3.93357 0.87818,-0.46999 2.55298,1.38974 4.28085,4.75355 0.58521,1.13928 1.33342,2.24604 1.95752,2.8956 0.55564,0.57829 1.09654,1.1914 1.20201,1.36247 0.17299,0.28058 0.41696,0.24666 2.49285,-0.34659 4.60323,-1.31552 10.45279,-2.73497 13.43746,-3.26072 2.8124,-0.4954 3.4401,-0.53793 7.94353,-0.53816 6.70431,-3.4e-4 9.22243,0.44135 17.01045,2.98371 2.55314,0.83347 4.76809,1.51539 4.92212,1.51539 0.15403,0 0.47794,-0.32359 0.71981,-0.71909 0.24186,-0.3955 1.45853,-2.20098 2.7037,-4.01218 2.41195,-3.50837 3.84294,-5.24471 4.10782,-4.98438 0.0895,0.0879 0.15478,0.52472 0.14514,0.97063 -0.0154,0.70981 -0.30416,1.22712 -2.3195,4.15467 -2.72971,3.96527 -3.39481,5.07713 -3.25501,5.44143 0.0572,0.1491 1.64085,1.54103 3.51919,3.09318 7.76048,6.41283 10.92698,10.49783 15.8944,20.50485 1.4622,2.94566 1.88764,4.32281 2.10298,6.80741 0.0623,0.71931 0.0256,1.36806 -0.0869,1.53406 -0.31934,0.47125 -5.74514,0.5311 -50.22549,0.55395 l -41.48288,0.0213 z m 91.10375,-0.73827 c -0.0682,-0.17784 -0.16723,-0.28021 -0.21996,-0.22748 -0.0527,0.0527 -0.04,0.24139 0.0282,0.41924 0.0682,0.17784 0.16722,0.2802 0.21996,0.22747 0.0527,-0.0527 0.04,-0.24139 -0.0282,-0.41923 z m -24.2359,-9.71047 c 1.00023,-0.56216 1.30167,-1.19234 1.30167,-2.72121 0,-3.68859 -2.64177,-4.88224 -5.281,-2.38616 -1.73025,1.63639 -1.80868,2.42231 -0.38767,3.88442 1.66217,1.71025 2.88878,2.05376 4.367,1.22295 z m -43.22643,-0.13189 c 0.3913,-0.20324 1.29856,-0.86081 2.01613,-1.46127 0.97146,-0.81291 1.2898,-1.19603 1.24643,-1.50011 -0.0636,-0.44601 -3.20088,-2.92908 -3.94135,-3.11949 -0.76757,-0.19738 -1.4225,0.1214 -2.48475,1.20942 -1.10689,1.13375 -1.47729,1.81378 -1.29713,2.38143 0.16277,0.51282 1.50329,2.08169 2.13406,2.49756 0.69761,0.45993 1.43115,0.45756 2.32661,-0.008 z"
             id="path2501"
             inkscape:connector-curvature="0" />
          <path
             style="fill:#2396f3;fill-opacity:1;stroke:#2396f3;stroke-width:0.19175777;stroke-opacity:1"
             d="m 405.2872,223.09822 c 0,-1.28361 0.64462,-5.40118 1.08425,-6.9257 0.97375,-3.37675 3.20676,-7.32458 6.40183,-11.31806 1.64109,-2.05119 7.37092,-7.92257 11.24681,-11.52466 l 2.14585,-1.99426 -1.04631,-1.3783 c -0.57548,-0.75806 -1.21281,-1.43114 -1.41629,-1.49572 -0.6469,-0.20532 -2.27214,-2.17606 -2.97422,-3.6065 -1.17537,-2.39474 -1.21398,-4.12962 -0.0895,-4.02099 0.71145,0.0687 2.27714,1.89848 3.44343,4.02418 1.30277,2.37445 1.59519,2.80809 2.8063,4.16154 l 0.9882,1.10434 4.66865,-1.25554 c 9.22931,-2.48205 12.08481,-2.99832 17.35849,-3.13837 7.33229,-0.19472 10.44418,0.33033 19.68601,3.32149 2.09217,0.67714 3.88032,1.18396 3.97366,1.12627 0.0933,-0.0577 1.20534,-1.63294 2.4711,-3.50056 2.77777,-4.09857 4.33154,-6.08028 4.76729,-6.08028 0.2587,0 0.32271,0.1767 0.31515,0.86998 -0.009,0.79061 -0.23785,1.21044 -2.5128,4.60218 -1.37682,2.05272 -2.64272,4.0033 -2.81311,4.33464 l -0.30981,0.60242 0.90503,0.83967 c 0.49776,0.46182 1.98366,1.73609 3.30199,2.8317 5.03841,4.18721 8.818,8.46596 11.58467,13.11465 1.86446,3.13274 5.06116,9.63305 5.39213,10.96456 0.15729,0.6328 0.3401,1.85299 0.40624,2.71152 0.11588,1.50401 0.10355,1.5705 -0.33786,1.8217 -0.38187,0.21732 -8.03128,0.27023 -45.95266,0.31785 l -45.49453,0.0571 z m 66.66881,-11.13687 c 1.18831,-0.53953 1.50319,-1.14802 1.49037,-2.88011 -0.0169,-2.27811 -0.87775,-3.45975 -2.52061,-3.45975 -1.31953,0 -2.77871,0.96983 -3.6206,2.4064 -0.47684,0.81367 -0.48142,0.85411 -0.17098,1.50833 0.38166,0.80427 1.78948,2.14455 2.64214,2.51536 0.82139,0.35721 1.23161,0.34023 2.17968,-0.0902 z m -42.55597,-0.51204 c 0.44786,-0.26068 1.31077,-0.94632 1.91758,-1.52366 l 1.1033,-1.04971 -1.11416,-1.01843 c -1.61938,-1.48027 -3.06116,-2.31192 -3.72467,-2.14848 -0.29171,0.0719 -1.0697,0.68125 -1.72887,1.3542 -1.6043,1.63786 -1.60064,2.13107 0.029,3.90214 1.15605,1.2564 1.99292,1.37152 3.51784,0.48394 z"
             id="path2503"
             inkscape:connector-curvature="0" />
          <path
             style="fill:#2396f3;fill-opacity:1;stroke:#2396f3;stroke-width:0.19175777;stroke-opacity:1"
             d="m 405.35169,221.97598 c 0.37624,-5.15706 1.73317,-9.03293 4.73374,-13.52117 2.32314,-3.47496 3.76682,-5.10932 9.91484,-11.22437 l 6.02638,-5.99408 -0.62989,-0.81332 c -0.34645,-0.44733 -1.37928,-1.5468 -2.2952,-2.44326 -1.23571,-1.20949 -1.83753,-1.97621 -2.333,-2.97225 -1.0279,-2.0664 -1.28031,-3.72533 -0.63412,-4.16779 0.39197,-0.26841 0.69765,-0.14312 1.53578,0.62944 0.83741,0.7719 1.52016,1.75732 3.24949,4.69001 0.49789,0.84434 1.397,2.0675 1.99802,2.71812 l 1.09276,1.18294 4.88983,-1.32771 c 5.29183,-1.43686 10.39468,-2.54629 13.1354,-2.85581 2.59469,-0.29302 9.12234,-0.24412 11.63947,0.0872 2.84906,0.37501 5.82026,1.11633 11.09948,2.76933 2.38161,0.74572 4.4526,1.35426 4.60219,1.35231 0.14959,-0.002 1.19857,-1.36263 2.33106,-3.02372 4.39343,-6.44411 5.4323,-7.5144 5.40857,-5.57216 -0.01,0.81523 -0.2282,1.22237 -2.51824,4.69806 -2.53255,3.84376 -2.93595,4.505 -2.93595,4.81262 0,0.0932 1.63298,1.56915 3.62885,3.2799 7.16526,6.14167 10.17132,9.81386 14.03066,17.13976 3.02189,5.73623 3.81736,7.94652 3.81736,10.60687 0,0.86838 -0.0681,1.06994 -0.43146,1.2775 -0.34737,0.19842 -9.30267,0.25718 -45.9552,0.30152 l -45.52375,0.0551 z M 472.16906,211.78 c 0.88301,-0.47257 1.19215,-1.14579 1.19215,-2.59622 0,-1.88262 -0.53762,-2.97044 -1.65976,-3.35837 -1.10047,-0.38045 -2.14033,-0.0479 -3.3299,1.06477 -1.0119,0.94651 -1.43872,1.75819 -1.27197,2.41893 0.16424,0.65082 2.07182,2.43782 2.90986,2.72592 0.73252,0.25183 1.34845,0.1791 2.15962,-0.25503 z m -43.16448,-0.17412 c 0.87195,-0.46775 3.1287,-2.37094 3.1287,-2.63853 0,-0.3123 -1.70532,-1.8774 -2.80654,-2.57576 -1.36463,-0.86543 -1.80467,-0.78568 -3.23308,0.58595 -1.68374,1.61681 -1.73989,2.0501 -0.46717,3.60543 1.10279,1.34767 2.17018,1.67089 3.37809,1.02291 z"
             id="path2505"
             inkscape:connector-curvature="0" />
          <path
             style="fill:#2396f3;fill-opacity:1;stroke:#2396f3;stroke-width:0.19175777;stroke-opacity:1"
             d="m 405.2242,223.68353 c -0.0395,-0.073 0.002,-0.95245 0.0921,-1.95439 0.46762,-5.19437 1.71521,-8.69782 4.71169,-13.23128 2.18533,-3.30625 3.49122,-4.79331 9.77714,-11.13356 3.30007,-3.32858 6.00013,-6.15006 6.00013,-6.26995 0,-0.11989 -0.92763,-1.17297 -2.0614,-2.34017 -2.3339,-2.40274 -3.30411,-3.85304 -3.79788,-5.67715 -0.40142,-1.48297 -0.2486,-2.25008 0.46865,-2.35242 0.65962,-0.0941 2.41474,1.7971 3.72054,4.00902 1.24727,2.11279 2.05487,3.26438 3.08722,4.40218 l 0.74598,0.82217 1.1716,-0.29379 c 0.64438,-0.16159 3.02685,-0.77771 5.29439,-1.36916 9.15359,-2.38758 11.36262,-2.69617 18.35036,-2.56345 6.56287,0.12466 7.28898,0.26683 17.7001,3.46581 2.60544,0.80056 2.80289,0.83439 3.13635,0.53746 0.19573,-0.17429 1.50997,-1.95642 2.92054,-3.96029 3.116,-4.4266 3.9181,-5.38658 4.35931,-5.21727 0.38044,0.14599 0.44176,1.2732 0.10456,1.92206 -0.11972,0.23036 -1.22937,1.97208 -2.4659,3.87048 -1.23653,1.89841 -2.39087,3.72988 -2.56521,4.06995 l -0.31697,0.61831 2.83082,2.43524 c 3.65063,3.14049 8.65119,8.17027 10.11012,10.1692 1.99551,2.73411 3.69135,5.60114 5.76422,9.74515 2.13637,4.27096 2.72661,6.00474 2.80962,8.25295 0.0709,1.92029 0.37714,1.82373 -6.09201,1.92087 -10.00359,0.1502 -85.78248,0.25792 -85.85609,0.12203 z m 66.89058,-11.98258 c 0.97127,-0.54956 1.32726,-1.48204 1.16978,-3.06408 -0.19814,-1.99049 -0.91747,-2.82362 -2.43794,-2.82362 -1.15092,0 -2.52559,0.9055 -3.32224,2.18839 l -0.56349,0.90741 0.36127,0.67084 c 0.3895,0.72325 1.86905,2.05772 2.61036,2.35439 0.73901,0.29575 1.36558,0.22876 2.18226,-0.23333 z m -42.76198,-0.42312 c 0.42186,-0.24951 1.21968,-0.85401 1.77293,-1.34333 1.20161,-1.06275 1.18106,-1.15422 -0.57081,-2.5416 -2.41613,-1.91343 -2.86145,-1.93379 -4.58564,-0.20959 -1.49608,1.49608 -1.49476,2.02358 0.009,3.68693 0.63526,0.70258 1.515,1.10242 2.12786,0.96711 0.26367,-0.0582 0.82456,-0.31 1.24643,-0.55952 z"
             id="path2507"
             inkscape:connector-curvature="0" />
          <path
             style="fill:#2396f3;fill-opacity:1;stroke:#2396f3;stroke-width:0.19175777;stroke-opacity:1"
             d="m 405.21236,223.68076 c -0.16628,-0.26905 0.18138,-3.62019 0.58045,-5.59501 0.82403,-4.0777 2.86291,-8.13111 6.36604,-12.65602 0.69403,-0.89646 3.33394,-3.74407 5.86645,-6.328 2.53252,-2.58394 5.32918,-5.44344 6.21481,-6.35445 l 1.61024,-1.65637 -1.79913,-1.89114 c -2.31045,-2.42862 -2.90411,-3.19956 -3.60497,-4.68151 -1.01115,-2.13809 -0.97985,-3.82528 0.071,-3.82528 0.71283,0 2.11557,1.55403 3.65813,4.05267 1.24119,2.01048 3.26959,4.76555 3.70817,5.0366 0.10281,0.0635 2.5033,-0.49001 5.33441,-1.23011 10.19438,-2.66499 12.19815,-2.95391 19.5631,-2.82085 6.38235,0.11532 7.22049,0.26109 15.11842,2.62944 2.81837,0.84514 5.22817,1.53662 5.35512,1.53662 0.12694,0 0.964,-1.01392 1.86013,-2.25315 0.89613,-1.23923 2.28317,-3.15921 3.08231,-4.26661 1.70958,-2.36903 2.30391,-2.97384 2.75297,-2.80152 0.25698,0.0986 0.30392,0.30611 0.23396,1.03414 -0.0739,0.76943 -0.45224,1.47267 -2.4375,4.53106 -2.61127,4.0228 -3.054,4.82954 -2.78499,5.0748 0.0991,0.0904 1.6472,1.45629 3.44014,3.03536 3.92702,3.45859 8.0252,7.66363 9.56939,9.81891 1.67233,2.33413 3.38151,5.25595 5.28214,9.0297 2.04101,4.05251 2.61767,5.6064 2.88805,7.78219 0.2829,2.27658 0.14817,2.47135 -1.82489,2.63813 -0.80798,0.0683 -21.38115,0.18209 -45.71815,0.25287 -33.33369,0.0969 -44.2828,0.0741 -44.38576,-0.0925 z m 66.55189,-11.91116 c 1.11481,-0.50616 1.42917,-1.06737 1.42917,-2.55139 0,-2.14236 -0.85742,-3.40496 -2.31227,-3.40496 -1.08993,0 -2.83194,1.25306 -3.46378,2.49156 -0.34656,0.67931 -0.34729,0.72741 -0.0193,1.26458 0.65919,1.07957 2.59296,2.54672 3.37441,2.56015 0.10546,0.002 0.55176,-0.16016 0.99177,-0.35994 z m -42.73939,-0.38238 c 0.80724,-0.4204 2.54623,-1.82548 2.79266,-2.25644 0.33677,-0.58894 -2.83169,-3.12577 -3.90402,-3.12577 -0.85449,0 -3.06701,2.18273 -3.06701,3.02572 0,0.37965 1.21213,1.96162 1.7834,2.32754 0.77113,0.49393 1.48555,0.50257 2.39497,0.029 z"
             id="path2509"
             inkscape:connector-curvature="0" />
          <path
             style="fill:#2396f3;fill-opacity:1;stroke:#2396f3;stroke-width:0.19175777;stroke-opacity:1"
             d="m 419.51465,180.98062 c 0.004,-0.3164 0.0469,-0.42262 0.0955,-0.23605 0.0486,0.18657 0.0454,0.44545 -0.007,0.57527 -0.0525,0.12983 -0.0923,-0.0228 -0.0884,-0.33922 z"
             id="path2513"
             inkscape:connector-curvature="0" />
          <path
             style="fill:#2396f3;fill-opacity:1;stroke:#2396f3;stroke-width:0.19175777;stroke-opacity:1"
             d="m 481.50909,182.22704 c 0.0721,-0.26366 0.19337,-0.78141 0.26945,-1.15054 l 0.13832,-0.67116 0.0937,0.5847 c 0.0609,0.37967 -0.0336,0.78312 -0.26945,1.15055 -0.33623,0.52385 -0.35346,0.53027 -0.23206,0.0864 z"
             id="path2515"
             inkscape:connector-curvature="0" />
          <path
             style="fill:#2396f3;fill-opacity:1;stroke:#2396f3;stroke-width:0.19175777;stroke-opacity:1"
             d="m 481.45241,180.98062 c 0.004,-0.3164 0.0469,-0.42262 0.0955,-0.23605 0.0486,0.18657 0.0454,0.44545 -0.007,0.57527 -0.0525,0.12983 -0.0923,-0.0228 -0.0884,-0.33922 z"
             id="path2517"
             inkscape:connector-curvature="0" />
          <path
             style="fill:#2396f3;fill-opacity:1;stroke:#2396f3;stroke-width:0.19175777;stroke-opacity:1"
             d="m 481.25355,181.26825 c 0,-0.26366 0.0435,-0.37153 0.0967,-0.23969 0.0532,0.13183 0.0532,0.34756 0,0.47939 -0.0532,0.13183 -0.0967,0.024 -0.0967,-0.2397 z"
             id="path2519"
             inkscape:connector-curvature="0" />
          <path
             style="fill:#2396f3;fill-opacity:1;stroke:#2396f3;stroke-width:0.19175777;stroke-opacity:1"
             d="m 405.16683,222.28532 c 0.50955,-6.24941 2.4189,-10.98781 6.61047,-16.40508 1.60065,-2.06871 3.74967,-4.37262 9.46165,-10.14363 2.40601,-2.43088 4.37457,-4.50367 4.37457,-4.60619 0,-0.10253 -0.87167,-1.12865 -1.93705,-2.28028 -2.33099,-2.5197 -3.11945,-3.65259 -3.6057,-5.18079 -0.3997,-1.25621 -0.69937,-3.24174 -0.42441,-2.81208 0.11609,0.18141 0.2062,0.19592 0.29765,0.0479 0.0721,-0.11673 0.34407,-0.21223 0.60429,-0.21223 0.72069,0 1.95417,1.36792 3.83124,4.24882 2.1081,3.23548 3.30742,4.7638 3.73832,4.7638 0.18613,0 2.71104,-0.60473 5.61091,-1.34384 9.56747,-2.43853 11.34424,-2.71154 17.67828,-2.71639 6.58068,-0.005 8.49949,0.29155 15.72203,2.43014 2.00387,0.59335 4.22967,1.24155 4.94624,1.44046 l 1.30284,0.36165 1.58321,-2.14741 c 0.87077,-1.18107 2.23935,-3.05346 3.04128,-4.16086 1.79393,-2.47725 2.49208,-3.17476 2.96948,-2.96671 0.19086,0.0832 0.41174,0.13753 0.49084,0.12078 0.56356,-0.11929 -0.44738,1.93393 -2.70952,5.50307 -1.24622,1.96624 -2.40727,3.84897 -2.58013,4.18385 l -0.31428,0.60887 3.22135,2.86408 c 3.87677,3.44682 7.46787,7.03739 9.09563,9.09428 3.00969,3.80317 7.78489,12.62994 8.6603,16.00826 0.37812,1.45921 0.56593,3.72416 0.33659,4.05916 -0.0983,0.14364 -0.55605,0.33933 -1.01712,0.43486 -0.47694,0.0988 -20.29758,0.22598 -45.97931,0.295 l -45.14099,0.12131 z m 66.86886,-10.77303 c 0.94294,-0.63545 1.1654,-1.17953 1.07634,-2.63245 -0.0962,-1.56868 -0.53065,-2.43611 -1.40278,-2.80051 -1.23228,-0.51488 -3.12332,0.41754 -4.04847,1.99619 -0.49621,0.84671 -0.49695,0.85428 -0.14785,1.50252 0.33144,0.61545 1.45465,1.66109 2.30076,2.14187 0.61393,0.34885 1.52218,0.26399 2.222,-0.20762 z m -42.68289,-0.42253 c 1.06803,-0.62658 2.39697,-1.80213 2.39697,-2.12033 0,-0.58362 -3.00651,-2.95612 -3.75434,-2.96263 -0.47842,-0.004 -2.0925,1.28382 -2.58799,2.06512 -0.60875,0.95991 -0.57986,1.14452 0.36278,2.31793 1.1487,1.42992 2.04106,1.60426 3.58258,0.69991 z"
             id="path2521"
             inkscape:connector-curvature="0" />
          <path
             style="fill:#2396f3;fill-opacity:1;stroke:#2396f3;stroke-width:0.19175777;stroke-opacity:1"
             d="m 405.16503,222.04322 c 0.27547,-3.91892 1.18171,-7.12728 3.00881,-10.65211 2.11588,-4.08194 4.0322,-6.47527 10.51955,-13.13806 2.47218,-2.53903 5.04382,-5.18278 5.71477,-5.87499 l 1.21992,-1.25857 -2.21019,-2.47857 c -2.45447,-2.75252 -3.25107,-4.05416 -3.65887,-5.97862 -0.39677,-1.87238 -0.39864,-1.86537 0.51431,-1.92813 0.72867,-0.0501 0.86961,0.0224 1.6776,0.86291 0.48516,0.50468 1.71346,2.16882 2.72957,3.69809 1.01611,1.52927 2.18104,3.15209 2.58873,3.60628 l 0.74126,0.82579 5.75274,-1.43146 c 6.35416,-1.5811 8.82495,-2.11472 11.12195,-2.40201 4.47077,-0.55915 11.60525,-0.39405 15.4868,0.35839 1.13507,0.22004 4.41412,1.08639 7.28679,1.92523 2.87267,0.83884 5.35248,1.52437 5.51068,1.5234 0.1582,-9.7e-4 1.59659,-1.79082 3.19642,-3.97745 2.97478,-4.06589 3.94568,-5.22212 4.38508,-5.22212 0.47985,0 0.85601,0.23553 0.87495,0.54785 0.0112,0.18418 0.0829,0.11591 0.17265,-0.16433 0.13999,-0.43712 0.15521,-0.41921 0.17264,0.20304 0.0105,0.37535 -0.11164,0.84995 -0.27146,1.05467 -0.27483,0.35206 -0.28505,0.34105 -0.18849,-0.20304 0.0875,-0.49309 0.0489,-0.46115 -0.26997,0.22354 -0.20464,0.43935 -1.31722,2.29983 -2.47241,4.13441 -2.27292,3.60964 -2.77883,4.50165 -2.68675,4.73721 0.0328,0.0838 1.44024,1.38641 3.12771,2.89461 3.9998,3.57486 7.82209,7.45402 9.33644,9.47534 1.83185,2.44512 3.48445,5.18925 5.55025,9.21613 2.33933,4.56008 3.07482,6.66558 3.11171,8.90803 l 0.0268,1.63038 -0.76703,0.26797 c -0.64533,0.22545 -7.9597,0.28334 -46.09988,0.36491 l -45.33285,0.0969 z m 66.57019,-10.47915 c 1.00277,-0.48544 1.32722,-1.08814 1.29631,-2.40809 -0.0478,-2.04067 -0.7887,-3.15097 -2.10268,-3.15097 -1.67039,0 -4.03703,2.2937 -3.46928,3.36237 0.51298,0.96559 2.51259,2.58212 3.19403,2.58212 0.15698,0 0.64371,-0.17345 1.08162,-0.38543 z m -42.38242,-0.55726 c 0.52733,-0.30557 1.28512,-0.89367 1.68397,-1.3069 l 0.72519,-0.75131 -0.40396,-0.51356 c -0.61204,-0.77809 -2.82616,-2.28622 -3.35645,-2.28622 -0.85953,0 -2.96033,2.06035 -2.96259,2.90555 -9.5e-4,0.37488 1.14649,1.83914 1.72511,2.20133 0.71589,0.44811 1.51914,0.37089 2.58873,-0.24889 z"
             id="path2523"
             inkscape:connector-curvature="0" />
        </g>
        <path
           inkscape:connector-curvature="0"
           id="path2533"
           d="m 430.66082,486.09358 c -0.87407,-0.82034 -1.8943,-2.03737 -2.26718,-2.70451 -0.8089,-1.44724 -0.90543,-5.02431 -0.13559,-5.02431 0.2983,0 0.54237,-0.34833 0.54237,-0.77407 0,-0.42574 0.90985,-1.52404 2.02188,-2.44068 l 2.02188,-1.6666 h 20.41956 20.41956 l 2.23653,2.10636 c 2.10495,1.98244 2.23652,2.28556 2.23652,5.15254 0,1.6754 -0.24406,3.04618 -0.54237,3.04618 -0.2983,0 -0.54237,0.27669 -0.54237,0.61486 0,0.33818 -0.67119,1.19212 -1.49153,1.89765 l -1.49152,1.28278 -20.91927,6.6e-4 -20.91926,6.6e-4 z"
           style="fill:#2396f3;fill-opacity:1;stroke:#2396f3;stroke-width:0.54237288;stroke-opacity:1" />
      </g>
    </g>
  </g>
</svg>
