<?xml version="1.0" encoding="UTF-8" standalone="no"?>
<!-- Created with Inkscape (http://www.inkscape.org/) -->

<svg
   xmlns:dc="http://purl.org/dc/elements/1.1/"
   xmlns:cc="http://creativecommons.org/ns#"
   xmlns:rdf="http://www.w3.org/1999/02/22-rdf-syntax-ns#"
   xmlns:svg="http://www.w3.org/2000/svg"
   xmlns="http://www.w3.org/2000/svg"
   xmlns:sodipodi="http://sodipodi.sourceforge.net/DTD/sodipodi-0.dtd"
   xmlns:inkscape="http://www.inkscape.org/namespaces/inkscape"
   version="1.1"
   id="svg869"
   width="377.86722"
   height="239.88466"
   viewBox="0 0 377.86722 239.88466"
   sodipodi:docname="pwas.svg"
   inkscape:version="0.92.3 (2405546, 2018-03-11)">
  <metadata
     id="metadata875">
    <rdf:RDF>
      <cc:Work
         rdf:about="">
        <dc:format>image/svg+xml</dc:format>
        <dc:type
           rdf:resource="http://purl.org/dc/dcmitype/StillImage" />
        <dc:title></dc:title>
      </cc:Work>
    </rdf:RDF>
  </metadata>
  <defs
     id="defs873" />
  <sodipodi:namedview
     pagecolor="#ffffff"
     bordercolor="#666666"
     borderopacity="1"
     objecttolerance="10"
     gridtolerance="10"
     guidetolerance="10"
     inkscape:pageopacity="0"
     inkscape:pageshadow="2"
     inkscape:window-width="1440"
     inkscape:window-height="837"
     id="namedview871"
     showgrid="false"
     inkscape:zoom="1.6910702"
     inkscape:cx="171.21268"
     inkscape:cy="96.669913"
     inkscape:window-x="0"
     inkscape:window-y="30"
     inkscape:window-maximized="1"
     inkscape:current-layer="g894" />
  <g
     id="g894"
     transform="translate(0.05188675,3.0659204)">
    <g
       id="g901">
      <path
         style="fill:#2396f3;fill-opacity:1;stroke:#2396f3;stroke-width:0.5913415;stroke-opacity:1"
         d="m 20.645066,236.06694 c -6.813052,-1.23369 -11.998246,-2.60526 -14.632803,-3.87062 -1.543285,-0.74123 -3.073382,-1.34769 -3.400214,-1.34769 -0.326832,0 -0.594241,-0.2661 -0.594241,-0.59134 0,-0.32524 -0.399155,-0.59134 -0.887012,-0.59134 -0.760951,0 -0.887012,-1.80688 -0.887012,-12.71385 v -12.71384 h 15.079208 15.079209 v -96.44549 c 0,-87.20149 0.09193,-96.76172 0.959117,-99.74474 1.472183,-5.06413 4.797531,-8.14343 10.909697,-10.10248 2.795126,-0.89588 292.414655,-0.98039 292.967745,-0.0855 0.201,0.32524 0.9485,0.59234 1.66109,0.59355 2.50352,0.004 7.06571,3.66223 9.12473,7.31621 0.9788,1.73699 1.05868,7.7128 1.33668,100.01007 l 0.29567,98.16269 14.93137,0.15799 14.93137,0.15799 v 12.60699 12.60699 l -3.40021,1.6383 c -5.88131,2.83373 -7.84291,3.45583 -14.6357,4.64153 -4.53834,0.79217 -334.509349,1.0985 -338.838694,0.31456 z M 360.0751,230.84863 c 0.20101,-0.32524 1.09176,-0.59134 1.97946,-0.59134 0.88769,0 3.06734,-0.54396 4.84367,-1.2088 1.77632,-0.66485 3.69536,-1.36114 4.26452,-1.54733 0.92407,-0.30228 1.03485,-1.28091 1.03485,-9.14189 v -8.80336 l -76.72656,0.15005 -76.72656,0.15005 -0.18024,2.80887 -0.18023,2.80887 h -29.53468 -29.53467 v -2.95671 -2.9567 H 82.440254 5.565857 v 8.593 c 0,7.64415 0.114272,8.63518 1.034848,8.97483 0.569166,0.21 1.167899,0.54743 1.330518,0.74984 0.449077,0.55899 6.468495,2.37804 7.903182,2.38833 0.694436,0.005 1.661767,0.26701 2.149624,0.58229 1.241985,0.80263 341.595021,0.80263 342.091071,0 z M 342.63052,107.29675 c 0,-59.85789 -0.2151,-97.50727 -0.56229,-98.42046 -0.30926,-0.81342 -1.1741,-2.18663 -1.92186,-3.05157 C 337.14301,2.35071 348.36858,2.5908 188.9449,2.5908 H 42.296633 l -2.06676,1.21942 c -1.136719,0.67068 -2.6155,2.14946 -3.28618,3.28618 -1.218382,2.065 -1.219419,2.1497 -1.219419,99.60431 v 97.53755 H 189.1774 342.63052 Z"
         id="path879"
         inkscape:connector-curvature="0" />
      <path
         style="fill:#2396f3;fill-opacity:1;stroke:#2396f3;stroke-width:0.5913415;stroke-opacity:1"
         d="m 180.01161,147.44195 c -5.62328,-0.42061 -11.24173,-1.50339 -12.09294,-2.33053 -0.30897,-0.30024 -1.17381,-0.54589 -1.92186,-0.54589 -0.74804,0 -1.36008,-0.2661 -1.36008,-0.59134 0,-0.32524 -0.33997,-0.59134 -0.75548,-0.59134 -1.12293,0 -7.39806,-3.36392 -10.77568,-5.77655 -6.99517,-4.99662 -15.26937,-15.23224 -18.27558,-22.60784 -0.59653,-1.46357 -1.29843,-3.19325 -1.55977,-3.84372 -3.71086,-9.23633 -3.38042,-28.375843 0.64462,-37.337105 0.60474,-1.34637 1.27386,-3.14257 1.48695,-3.99155 0.21308,-0.84899 0.55815,-1.54666 0.76682,-1.55039 0.20867,-0.004 0.86166,-1.01422 1.45108,-2.24552 0.96782,-2.02175 4.06638,-6.41493 7.2071,-10.2183 3.16712,-3.83535 12.05763,-10.37662 17.17323,-12.63535 4.17624,-1.84397 4.65834,-2.01902 8.25445,-2.99711 1.95143,-0.53077 4.36526,-1.21035 5.36406,-1.51019 2.48135,-0.7449 19.0076,-0.70571 19.47229,0.0462 0.20101,0.32524 1.03154,0.59134 1.84564,0.59134 4.07065,0 15.04083,4.85564 21.00872,9.29892 3.49645,2.60322 7.94096,6.81169 10.94502,10.36375 1.77803,2.10238 6.11617,9.38062 6.11617,10.2613 0,0.39998 0.21082,0.81593 0.46849,0.92434 0.39759,0.16729 1.71581,4.04089 4.30738,12.657272 0.71596,2.38043 0.70617,18.277213 -0.0127,20.612983 -0.3074,0.99881 -1.00717,3.41263 -1.55506,5.36406 -0.92343,3.28905 -4.72904,12.03944 -5.52934,12.71384 -0.19298,0.16262 -1.11443,1.49314 -2.04768,2.95671 -2.35455,3.69256 -10.99233,12.16348 -14.89596,14.60823 -1.71547,1.07435 -10.35381,5.28151 -12.37189,6.02552 -5.32231,1.9622 -15.21846,2.95709 -23.35799,2.34828 z m 0,-6.01053 c 0,-0.42281 -0.24201,-1.02154 -0.53779,-1.33052 -0.83307,-0.87021 -6.09898,-10.22114 -7.89234,-14.01479 -1.42686,-3.01837 -1.80513,-3.40021 -3.36838,-3.40021 -1.60362,0 -5.60998,1.08246 -8.60277,2.32435 -0.65048,0.26993 -2.38015,0.96931 -3.84372,1.5542 -3.37152,1.34736 -4.28039,2.16206 -3.80218,3.40823 0.20936,0.5456 0.55177,0.99262 0.7609,0.99339 0.20913,7.6e-4 1.3116,0.79844 2.44993,1.77263 1.13834,0.97419 2.25027,1.77187 2.47097,1.77264 0.22069,5.9e-4 0.7529,0.35113 1.18268,0.77861 1.36807,1.36074 10.05654,5.26339 12.42515,5.58109 1.2549,0.16832 2.42389,0.53623 2.59778,0.81758 0.53028,0.85801 6.15977,0.62295 6.15977,-0.2572 z m 19.51427,-0.36934 c 5.55029,-1.42818 16.86116,-7.78762 19.49455,-10.96066 1.02695,-1.2374 0.22145,-2.04257 -3.52833,-3.52688 -1.46357,-0.57934 -3.12311,-1.29213 -3.68786,-1.58399 -0.56476,-0.29185 -1.50942,-0.53063 -2.09926,-0.53063 -0.58984,0 -1.37297,-0.30053 -1.74029,-0.66785 -0.36731,-0.36731 -2.21673,-0.69994 -4.10983,-0.73918 -3.14462,-0.0652 -3.4583,0.0436 -3.63093,1.25919 -0.10393,0.73179 -0.43656,1.33052 -0.73918,1.33052 -0.30262,0 -0.55021,0.26428 -0.55021,0.58729 0,1.0098 -2.02996,5.32613 -2.50487,5.32613 -0.24851,0 -0.45184,0.30387 -0.45184,0.67527 0,0.3714 -1.06442,2.36066 -2.36537,4.42057 -3.19198,5.05415 -3.13541,5.74024 0.44351,5.3787 1.54488,-0.15607 4.00634,-0.59188 5.46991,-0.96848 z m -12.49218,-3.10254 c 0.441,-0.70616 1.47441,-2.50236 2.29647,-3.99156 0.82206,-1.4892 1.94442,-3.37289 2.49413,-4.18599 0.54971,-0.81309 1.67923,-2.86763 2.51005,-4.56564 1.34538,-2.74969 1.4109,-3.17001 0.59912,-3.84372 -1.27032,-1.05428 -18.09596,-1.07125 -19.1479,-0.0193 -0.5886,0.58859 -0.25522,1.66093 1.65457,5.32207 6.60539,12.66279 7.83174,14.10525 9.59356,11.28414 z m -36.73267,-14.32315 c 1.5425,-0.77818 4.00201,-1.87445 5.46558,-2.43616 1.46357,-0.56171 3.19324,-1.2252 3.84372,-1.47443 0.65047,-0.24923 2.38015,-0.78096 3.84372,-1.18162 1.46357,-0.40066 3.01847,-0.83131 3.45534,-0.95701 0.60571,-0.17428 0.69485,-0.96507 0.37542,-3.33049 -0.23038,-1.70607 -0.65435,-3.55013 -0.94214,-4.09792 -0.28779,-0.54778 -0.52326,-1.8916 -0.52326,-2.98627 0,-1.09467 -0.25255,-2.2431 -0.56123,-2.55208 -0.30867,-0.30897 -0.6413,-2.4245 -0.73917,-4.701163 l -0.17795,-4.13939 h -14.48787 -14.48787 l 0.11097,1.77402 c 0.18359,2.934943 1.24062,8.602283 1.97158,10.570763 2.24857,6.05548 8.52194,16.92662 9.76777,16.92662 0.15447,0 1.54289,-0.63669 3.08539,-1.41487 z m 77.21494,-3.4637 c 1.71997,-2.68321 3.60405,-6.07603 4.18683,-7.5396 0.58279,-1.46357 1.2984,-3.12311 1.59025,-3.68786 0.29185,-0.56475 0.53064,-1.58014 0.53064,-2.25641 0,-0.67627 0.25472,-1.70553 0.56605,-2.28725 0.31132,-0.58172 0.74722,-2.82611 0.96867,-4.987533 l 0.40262,-3.92985 h -14.50626 c -16.28153,0 -15.2245,-0.32157 -15.22367,4.631263 5.2e-4,3.16796 -1.59037,12.31334 -2.40757,13.84013 -1.27011,2.37294 -0.68262,3.259 2.85061,4.29936 1.87012,0.55066 3.93242,1.20883 4.5829,1.4626 0.65047,0.25377 2.38015,0.92828 3.84372,1.49891 1.46357,0.57062 3.99155,1.65077 5.61774,2.40034 1.62619,0.74956 3.16225,1.37896 3.41348,1.39865 0.25122,0.0197 1.86402,-2.15953 3.58399,-4.84275 z m -42.18229,-4.76979 c 1.13833,-0.009 4.35106,0.1979 7.13939,0.46003 l 5.06969,0.47661 0.64458,-1.70539 c 1.09276,-2.89121 2.05558,-7.41638 2.56467,-12.05387 0.26777,-2.43928 0.56712,-4.967263 0.66521,-5.617743 0.17418,-1.155 -0.20044,-1.18637 -16.00645,-1.34015 l -16.1848,-0.15747 0.40816,5.183873 c 0.22449,2.85113 0.64089,5.98218 0.92533,6.9579 0.28444,0.97571 0.9673,3.34108 1.51747,5.25636 l 1.00032,3.48234 5.09337,-0.46296 c 2.80135,-0.25462 6.02473,-0.47041 7.16306,-0.47953 z M 164.74166,85.727047 c 0.39427,-4.07397 0.91513,-7.050222 2.2981,-13.131392 0.86683,-3.81159 0.4936,-4.90452 -1.67486,-4.90452 -0.92088,0 -1.92712,-0.21242 -2.23609,-0.47204 -0.30898,-0.25962 -2.02535,-0.95183 -3.81415,-1.53825 -3.34758,-1.09742 -5.6492,-2.04271 -9.75714,-4.00734 l -2.36537,-1.13123 -1.88488,2.22821 c -2.17137,2.56688 -6.09823,9.70354 -6.09823,11.08291 0,0.51361 -0.21091,0.93384 -0.46869,0.93384 -0.25778,0 -0.82702,1.26399 -1.26497,2.80887 -0.71795,2.532592 -1.14402,4.595512 -2.20061,10.654622 l -0.33696,1.93233 14.70163,-0.15831 14.70162,-0.15831 z m 36.69413,2.95671 c -0.0879,-0.65048 -0.38826,-3.31151 -0.66753,-5.91342 -0.56214,-5.237492 -1.57443,-9.905882 -2.61166,-12.044302 -0.65214,-1.3445 -0.84411,-1.38249 -4.82917,-0.95561 -5.29545,0.56725 -10.70657,0.56468 -16.09404,-0.008 l -4.25656,-0.45217 -0.36205,1.70345 c -0.19913,0.9369 -0.61208,2.16553 -0.91767,2.73028 -0.30559,0.56475 -0.55562,1.71319 -0.55562,2.55207 0,0.83889 -0.23808,1.97344 -0.52906,2.52122 -0.29098,0.547792 -0.72197,3.328722 -0.95776,6.179852 l -0.4287,5.18387 16.1848,-0.15747 c 15.79895,-0.15371 16.181,-0.18566 16.02502,-1.34015 z m 33.91114,-2.21753 c -0.4015,-3.67728 -1.19778,-6.90368 -2.18718,-8.862102 -0.28531,-0.56475 -0.51875,-1.37042 -0.51875,-1.79037 0,-2.08075 -7.75083,-15.21872 -8.97839,-15.21872 -0.27452,0 -0.96119,0.25677 -1.52594,0.5706 -1.67783,0.93236 -6.24433,2.84816 -9.96518,4.18072 -1.9139,0.68544 -4.01203,1.48235 -4.6625,1.77091 -0.65048,0.28857 -1.84522,0.60227 -2.65499,0.6971 -1.66731,0.19528 -2.21428,1.72531 -1.30497,3.65038 0.86097,1.82271 2.4816,11.078082 2.4816,14.172302 0,4.82982 -1.02497,4.52506 15.21886,4.52506 h 14.50098 z M 195.42515,64.342625 c 0.5204,-0.52167 0.15365,-1.73393 -1.52065,-5.0264 -1.21355,-2.38642 -2.37445,-4.47219 -2.57977,-4.63505 -0.20532,-0.16287 -0.87655,-1.22728 -1.49163,-2.36537 -0.61508,-1.13808 -1.66233,-3.06713 -2.32724,-4.28678 -0.6649,-1.21964 -1.42739,-2.21753 -1.69442,-2.21753 -0.68428,0 -5.55435,7.69401 -8.37614,13.23311 -2.30582,4.52626 -2.34074,4.68269 -1.229,5.50437 1.45339,1.07417 18.11994,0.89522 19.21885,-0.20635 z m -24.31833,-3.57871 c 0.42867,-1.18548 2.07541,-4.40767 3.65941,-7.16042 1.58401,-2.75275 2.88593,-5.16639 2.89316,-5.36365 0.007,-0.19726 0.53352,-1.02391 1.16954,-1.83701 1.82157,-2.32874 1.50588,-2.9567 -1.48638,-2.9567 -1.46799,0 -3.13113,0.23718 -3.69589,0.52706 -0.56475,0.28989 -2.59117,0.97954 -4.50316,1.53257 -1.91198,0.55302 -4.70607,1.69439 -6.20908,2.53638 -1.50301,0.84198 -3.29998,1.82742 -3.99325,2.18986 -1.18768,0.62091 -4.21013,2.89918 -6.85396,5.16639 -1.52553,1.3082 -0.71155,2.20077 3.3841,3.7108 1.62598,0.59949 3.20913,1.3121 3.51811,1.58358 0.30897,0.27148 1.12946,0.4936 1.8233,0.4936 0.69384,0 1.45731,0.19958 1.6966,0.44351 0.55562,0.5664 6.35917,1.77625 7.19028,1.49894 0.34529,-0.11522 0.97854,-1.17942 1.40722,-2.36491 z m 36.96394,0.9515 c 0.30898,-0.29097 1.12059,-0.52904 1.80359,-0.52904 0.683,0 1.49462,-0.22893 1.8036,-0.50874 0.30897,-0.2798 1.97456,-1.00329 3.7013,-1.60775 3.29104,-1.15205 4.59441,-2.17354 4.00016,-3.13506 -1.79684,-2.90734 -15.51731,-10.56123 -20.01578,-11.16569 -1.22758,-0.16495 -2.37422,-0.53011 -2.54811,-0.81146 -0.17388,-0.28135 -1.49791,-0.51154 -2.94229,-0.51154 -3.37485,0 -3.4156,0.87794 -0.26077,5.61774 1.29888,1.95143 2.36245,3.88068 2.36349,4.28723 10e-4,0.40654 0.20521,0.73917 0.45372,0.73917 0.47491,0 2.50487,4.31633 2.50487,5.32613 0,0.32301 0.2661,0.58729 0.59134,0.58729 0.32524,0 0.59134,0.51898 0.59134,1.1533 0,1.74768 1.54594,2.29774 4.651,1.65489 1.50743,-0.31209 2.99357,-0.8055 3.30254,-1.09647 z"
         id="path881"
         inkscape:connector-curvature="0" />
      <path
         style="fill:#2396f3;fill-opacity:1;stroke:#2396f3;stroke-width:0.5913415;stroke-opacity:1"
         d="m 184.33658,22.778612 c -2.48441,-1.51486 -3.33987,-3.22587 -2.86865,-5.73765 0.48196,-2.5691 3.33735,-4.54504 5.87909,-4.06836 2.15011,0.40324 3.04183,1.1364 4.19592,3.44983 0.8205,1.64472 0.82078,2.01922 0.003,3.74288 -0.49988,1.05342 -1.74383,2.33183 -2.76433,2.84093 -2.30557,1.15017 -2.17421,1.1569 -4.44488,-0.22763 z"
         id="path883"
         inkscape:connector-curvature="0" />
      <text
         xml:space="preserve"
         style="font-style:normal;font-weight:normal;font-size:40px;line-height:1.25;font-family:sans-serif;letter-spacing:0px;word-spacing:0px;fill:#000000;fill-opacity:1;stroke:none"
         x="162.61891"
         y="185.59657"
         id="text887"><tspan
           sodipodi:role="line"
           id="tspan885"
           x="162.61891"
           y="185.59657"
           style="font-style:normal;font-variant:normal;font-weight:300;font-stretch:normal;font-family:Roboto;-inkscape-font-specification:'Roboto Light';fill:#2396f3;fill-opacity:1">&lt;|&gt;</tspan></text>
    </g>
  </g>
</svg>
