<?xml version="1.0" encoding="UTF-8"?>
<!-- Created with Inkscape (http://www.inkscape.org/) -->
<svg width="1e3" height="600" version="1.1" viewBox="0 0 1e3 600" xmlns="http://www.w3.org/2000/svg" xmlns:cc="http://creativecommons.org/ns#" xmlns:dc="http://purl.org/dc/elements/1.1/" xmlns:rdf="http://www.w3.org/1999/02/22-rdf-syntax-ns#">
 <metadata>
  <rdf:RDF>
   <cc:Work rdf:about="">
    <dc:format>image/svg+xml</dc:format>
    <dc:type rdf:resource="http://purl.org/dc/dcmitype/StillImage"/>
    <dc:title/>
   </cc:Work>
  </rdf:RDF>
 </metadata>
 <g stroke="#b32e31" stroke-width="1.1062"></g>
 <g fill="#2396f3" stroke="#b32e31" stroke-width="1.1062"></g>
 <g fill="#1186c1" stroke="#2396f3" stroke-width="1.1062"></g>
 <g transform="translate(-71.903 -13.274)">
  <g transform="translate(30.973 11.062)">
   <path d="m502.21 54.646v482.3l182.52-106.19 35.398-296.46z" fill="none" stroke="#1186a1" stroke-width="1px"/>
   <g fill="#1186a1" stroke="#1186a1">
    <path d="m503.1 443.32v-91.919h30.973c24.536 0 30.973 0.29627 30.973 1.4254 0 0.78397 0.88625 3.1637 1.9694 5.2883s2.8885 6.3366 4.0119 9.36c1.1233 3.0234 2.689 6.9904 3.4792 8.8156 2.6528 6.1276 7.2951 17.64 9.991 24.777 1.4704 3.8927 3.1052 7.6261 3.6328 8.2965 0.52762 0.6704 1.8119 3.8323 2.8539 7.0264l1.8946 5.8075h23.694c19.391 0 23.694-0.27683 23.694-1.5242 0-2.0757-1.7986-6.3684-11.615-27.721-1.521-3.3086-2.7655-6.316-2.7655-6.6833 0-0.36724-1.427-3.7581-3.171-7.5353-1.7441-3.7772-5.0334-11.099-7.3095-16.27s-5.3293-11.985-6.7847-15.142c-1.4554-3.1565-2.6462-6.0174-2.6462-6.3577 0-0.34025-1.4397-3.7311-3.1993-7.5353-1.7596-3.8042-5.0514-11.148-7.3151-16.319-4.93-11.263-7.0015-15.878-11.513-25.649-1.8783-4.0684-3.4151-7.6981-3.4151-8.066s-1.427-3.7594-3.171-7.5365c-1.7441-3.7772-5.0026-11.099-7.2411-16.27-2.2386-5.1715-5.2917-11.941-6.7847-15.044-1.493-3.1028-2.7146-5.9638-2.7146-6.3577 0-0.39391-1.4397-3.8287-3.1993-7.6328-1.7596-3.8042-5.0167-11.148-7.238-16.319-2.2213-5.1715-4.9777-11.394-6.1255-13.827-5.1516-10.923-8.8797-19.273-8.8797-19.888 0-0.3679-1.427-3.7593-3.171-7.5365-1.7441-3.7772-5.0026-11.099-7.2411-16.27s-5.2917-11.941-6.7847-15.044c-1.493-3.1028-2.7146-5.9638-2.7146-6.3577 0-0.3939-1.435-3.8287-3.189-7.6328-9.8129-21.283-8.9792-17.09-8.9792-45.157v-25.251l3.5951 1.2092c1.9773 0.66503 4.0929 1.5811 4.7013 2.0358 0.6084 0.45464 4.3418 1.8457 8.2965 3.0912 3.9546 1.2455 11.421 3.845 16.593 5.7766 15.277 5.7062 29.961 10.98 37.058 13.311 3.6504 1.1987 8.1305 2.8523 9.9558 3.6746s6.0564 2.3452 9.4027 3.3842c3.3462 1.039 7.5774 2.5324 9.4026 3.3186s6.0564 2.3017 9.4026 3.3677c3.3462 1.066 6.5819 2.3231 7.1903 2.7935 0.60841 0.4704 4.0929 1.7037 7.7434 2.7406 3.6504 1.037 8.1305 2.5618 9.9558 3.3885 1.8252 0.82671 10.536 4.0854 19.358 7.2414 8.8219 3.1561 20.52 7.3407 25.996 9.2992 5.4757 1.9584 13.191 4.6656 17.146 6.0159 3.9546 1.3503 8.6836 3.1163 10.509 3.9245 1.8252 0.80817 4.7426 1.8245 6.4832 2.2585 3.1046 0.77412 3.15 0.89631 2.3955 6.4459-0.42296 3.1113-2.201 17.853-3.9511 32.759-1.7502 14.906-4.7191 40.044-6.5977 55.863-1.8786 15.819-4.6114 38.966-6.0729 51.438-1.4615 12.472-3.4061 28.65-4.3212 35.951-0.91518 7.3009-3.2095 26.466-5.0985 42.588-5.0653 43.233-8.5602 70.904-8.9986 71.246-0.36014 0.28115-165.05 96.165-175.44 102.14l-4.7013 2.7048z" stroke-width="1.1062"/>
    <path d="m592.13 418.94c-0.41198-1.7914-1.9391-5.8324-3.3936-8.9801-1.4545-3.1477-2.6445-6.2345-2.6445-6.8595 0-0.62505-1.4099-4.4452-3.1331-8.4894-1.7232-4.0441-3.7431-9.4848-4.4887-12.09-0.74555-2.6056-1.9632-5.8034-2.706-7.1062s-1.9873-4.5006-2.7657-7.1062c-1.4034-4.6977-5.8104-16.127-7.5353-19.542-0.75868-1.5021-5.6441-1.8252-31.621-2.0911l-30.724-0.31456 5.4e-4 -21.3 5.5e-4 -21.3h44.91l-0.73003-2.6648c-0.40152-1.4656-2.3432-6.3956-4.3148-10.955-3.3479-7.7428-5.3538-12.486-11.895-28.129-3.5719-8.5413-8.0181-19.066-11.633-27.537-1.668-3.9084-5.566-13.235-8.6623-20.726-3.0963-7.4911-6.0895-14.127-6.6516-14.745-0.60586-0.66706-0.99172-22.366-0.94776-53.297 0.0557-39.195 0.37479-51.435 1.2828-49.211 0.66473 1.6285 2.8423 6.7476 4.839 11.376 1.9967 4.6282 3.6304 8.7922 3.6304 9.2534-1e-5 0.4612 1.1825 3.6031 2.6278 6.9819 8.04 18.796 9.3814 22.056 9.3814 22.801 0 0.44966 1.4218 4.0808 3.1596 8.0691 6.8754 15.78 9.9414 23.124 9.9414 23.813 0 0.39687 1.7195 4.7059 3.8211 9.5756 2.1016 4.8697 3.8212 9.1424 3.8212 9.4948 0 0.58369 1.4695 4.1274 9.3814 22.624 1.4453 3.3788 2.6279 6.442 2.6279 6.807s1.4739 4.1293 3.2752 8.3651l6.5505 15.403c1.8014 4.2359 3.2753 8.0484 3.2753 8.4724 0 0.42396 1.1647 3.4871 2.5882 6.807 1.4235 3.3198 4.4242 10.566 6.6683 16.103 2.244 5.5369 5.5009 13.4 7.2376 17.473 1.7366 4.073 3.1575 7.7035 3.1575 8.0678 0 0.36432 1.1753 3.4274 2.6117 6.807 1.4364 3.3795 4.4396 10.675 6.6738 16.212 4.8653 12.058 6.9097 16.999 11.363 27.462 1.8538 4.3559 3.3706 8.2422 3.3706 8.636-1e-5 0.39391 1.4083 4.025 3.1296 8.0691 1.7213 4.0441 4.9644 11.883 7.2069 17.42 2.2425 5.5369 4.9728 12.199 6.0674 14.805 2.3786 5.6624 5.4311 13.732 5.4311 14.357 0 0.24615-9.7726 0.44754-21.717 0.44754h-21.717z" stroke-width="1.1371"/>
    <path d="m503.34 312.56c0.18112-98.335 1.2964-128.89 4.4949-123.14 4.5506 8.1814 23.674 41.44 41.778 72.659 6.0985 10.517 16.065 27.725 22.148 38.242 6.083 10.516 16.243 28.069 22.578 39.007 6.3348 10.937 15.02 26.081 19.3 33.653 4.2802 7.5718 14.871 25.84 23.534 40.595 8.6637 14.756 15.752 27.49 15.752 28.299 1.2e-4 0.80873-33.711 1.4704-74.913 1.4704h-74.913z" stroke-width="3.4283"/>
    <g stroke-width="1.1062">
     <path d="m502.54 444.75c-0.45416-49.655-0.54443-124.2-0.2006-165.65 0.34383-41.454 0.63607-108.35 0.64943-148.66 0.0134-40.307 0.30818-73.285 0.65517-73.285s2.4816 0.78465 4.7436 1.7437c2.262 0.95902 27.011 9.9858 54.998 20.06 27.987 10.074 58.352 21.031 67.478 24.349 19.428 7.0637 72.434 26.083 81.465 29.23 5.1497 1.7946 6.3438 2.6979 6.8156 5.1558 0.31467 1.639 0.054 3.6065-0.57921 4.3721-0.63323 0.76566-0.8693 3.1302-0.52457 5.2544 0.3885 2.3941 0.17733 3.8623-0.55553 3.8623-0.74079 0-0.96069 1.6523-0.58884 4.4246 0.33306 2.4832 0.0988 4.7303-0.53386 5.1213-0.62329 0.38521-0.87058 2.611-0.55308 4.9781 0.34695 2.5867 0.1204 4.2814-0.57233 4.2814-0.69913 0-0.91498 1.7268-0.5531 4.4248s0.14604 4.4248-0.5531 4.4248c-0.69911 0-0.91498 1.7267-0.55312 4.4246 0.33307 2.4832 0.0988 4.7303-0.53386 5.1213-0.62328 0.38522-0.87057 2.611-0.55307 4.9781 0.34694 2.5867 0.1204 4.2814-0.57234 4.2814-0.69911 0-0.91497 1.7267-0.55312 4.4246 0.33307 2.4832 0.0988 4.7303-0.53386 5.1213-0.62328 0.38522-0.87057 2.611-0.55307 4.9781 0.34695 2.5867 0.1204 4.2814-0.57234 4.2814-0.69911 0-0.91497 1.7267-0.55312 4.4246 0.33182 2.4739 0.0985 4.7305-0.52935 5.1185-0.61756 0.38167-0.85185 2.3638-0.52066 4.4047 0.33357 2.0554 0.0881 4.0285-0.55034 4.4231-0.67624 0.41795-0.87372 2.4558-0.47786 4.9314 0.41677 2.6063 0.2043 4.5098-0.55586 4.9796-0.71958 0.44472-0.98046 2.3013-0.62833 4.4713 0.33121 2.0409 0.12774 4.004-0.45214 4.3624-0.57988 0.35838-1.0604 2.4831-1.0678 4.7216-0.0246 7.3922-0.55517 12.901-1.3686 14.208-0.44105 0.70844-0.79743 2.9485-0.79197 4.9779 6e-3 2.0294-0.27547 5.9298-0.62431 8.6677-0.34885 2.7378-0.73915 6.7201-0.86733 8.8496-0.12818 2.1294-0.59392 4.4513-1.035 5.1598-0.44105 0.70844-0.81333 2.9485-0.82728 4.9779-0.0438 6.3782-0.70611 12.466-1.5748 14.478-0.46046 1.0661-0.53281 3.1512-0.16076 4.6335 0.37206 1.4824 0.16741 3.0098-0.45476 3.3944-0.62218 0.38451-1.1373 2.5306-1.1447 4.7691-0.0221 6.6562-0.66547 12.791-1.5584 14.858-0.46047 1.0661-0.53281 3.1512-0.16076 4.6335 0.3811 1.5184 0.1365 3.0289-0.56021 3.4595-0.74093 0.45792-1.0065 2.4805-0.66245 5.0455 0.31627 2.358 0.0698 4.5929-0.54859 4.9751-0.61756 0.38167-0.85185 2.3638-0.52066 4.4047 0.33426 2.0597 0.0882 4.0284-0.55309 4.4248-0.64125 0.39631-0.88735 2.365-0.5531 4.4248 0.33539 2.0667 0.0884 4.0283-0.55759 4.4276-0.65821 0.40679-0.91143 2.5684-0.58553 4.9982 0.34695 2.5867 0.1204 4.2814-0.57234 4.2814-0.69911 0-0.91497 1.7267-0.55311 4.4246 0.33181 2.4739 0.0985 4.7305-0.52936 5.1185-0.61756 0.38167-0.85185 2.3638-0.52066 4.4047 0.33539 2.0668 0.0884 4.0283-0.55758 4.4276-0.65823 0.4068-0.91143 2.5684-0.5855 4.9984 0.31586 2.3549 0.1917 4.0452-0.2759 3.7562-0.46761-0.289-1.1403 1.9243-1.4949 4.9185-0.60218 5.0844-4.0814 10.725-5.6487 9.1573-0.3549-0.3549-0.64527-0.0352-0.64527 0.71056 0 0.74572-0.50131 1.046-1.114 0.66735-0.61271-0.37867-1.4116 0.0868-1.7752 1.0346-0.36365 0.94769-1.1068 1.4476-1.6515 1.111-0.54466-0.33661-0.99029-0.0555-0.99029 0.62474 0 0.68022-0.47963 0.94033-1.0658 0.57803-0.5862-0.3623-2.0381 0.31352-3.2264 1.5018-1.1883 1.1883-2.4509 1.8702-2.8058 1.5153-0.3549-0.3549-0.64528-0.0352-0.64528 0.71056 0 0.74572-0.47964 1.0594-1.0658 0.69712s-1.9966 0.23055-3.1342 1.3175c-1.1376 1.0869-2.7736 2.128-3.6355 2.3135-0.86192 0.18553-2.1141 1.0489-2.7827 1.9186-0.66856 0.86973-1.5397 1.2572-1.9358 0.86104-0.39614-0.39615-0.72027-0.11018-0.72027 0.63558 0 0.74572-0.47963 1.0594-1.0658 0.69711-0.5862-0.3623-1.9966 0.23055-3.1342 1.3175-1.1376 1.0869-2.7736 2.128-3.6355 2.3135-0.86191 0.18553-2.1141 1.0489-2.7827 1.9186-0.66856 0.86973-1.5397 1.2572-1.9358 0.86104-0.39614-0.39615-0.72026-0.11017-0.72026 0.63558 0 0.74572-0.47964 1.0594-1.0658 0.69711s-1.9966 0.23056-3.1342 1.3175c-1.1376 1.0869-2.7736 2.128-3.6355 2.3135-0.86192 0.18553-2.1141 1.0489-2.7827 1.9186-0.66856 0.86972-1.5397 1.2572-1.9358 0.86104-0.39614-0.39615-0.72027-0.11018-0.72027 0.63557 0 0.74572-0.47963 1.0594-1.0658 0.69712-0.58621-0.36231-2.0381 0.31351-3.2264 1.5018-1.1883 1.1883-2.4509 1.8702-2.8058 1.5153-0.3549-0.3549-0.64527-0.0352-0.64527 0.71056 0 0.74572-0.50131 1.046-1.114 0.66735-0.61271-0.37867-1.4115 0.0868-1.7752 1.0346-0.36365 0.94769-1.1068 1.4476-1.6515 1.111-0.54465-0.33661-0.99029-0.0555-0.99029 0.62474 0 0.68022-0.47963 0.94033-1.0658 0.57803-0.58621-0.3623-2.0381 0.31352-3.2264 1.5018-1.1883 1.1883-2.4509 1.8702-2.8058 1.5153-0.3549-0.3549-0.64528-0.0352-0.64528 0.71056 0 0.74572-0.4224 1.0948-0.93867 0.77572-0.51626-0.31907-1.9046 0.27379-3.0852 1.3175-1.1806 1.0437-2.8738 2.0494-3.7626 2.2349-0.88886 0.18553-2.2383 1.1518-2.9988 2.1473-0.76051 0.99545-1.3827 1.4377-1.3827 0.98285 0-0.45487-1.4934 0.0551-3.3186 1.1333s-3.3186 2.3802-3.3186 2.8933c0 0.51314-0.47963 0.63654-1.0658 0.27424-0.58622-0.3623-2.0796 0.355-3.3186 1.594-1.239 1.239-2.2527 1.9757-2.2527 1.6371 0-0.3386-1.4934 0.26652-3.3186 1.3447-1.8252 1.0782-3.3186 2.3802-3.3186 2.8933 0 0.51314-0.47963 0.63655-1.0658 0.27425s-2.0381 0.31351-3.2264 1.5018c-1.1883 1.1883-2.4509 1.8702-2.8058 1.5153-0.3549-0.3549-0.64528-0.0352-0.64528 0.71056 0 0.74572-0.47963 1.0594-1.0658 0.69712-0.58622-0.36231-1.9966 0.23055-3.1342 1.3175-1.1376 1.0869-2.7736 2.128-3.6355 2.3135-0.86191 0.18553-2.1141 1.0489-2.7827 1.9186-0.66857 0.86972-1.5397 1.2572-1.9358 0.86104-0.39615-0.39615-0.72027-0.11014-0.72027 0.63558 0 0.74571-0.47963 1.0594-1.0658 0.69711s-2.0796 0.355-3.3186 1.594c-1.239 1.239-2.5016 2.2527-2.8058 2.2527h-1.4507c-0.49368 0-2.0998 1.12-3.5692 2.4889-1.4694 1.3689-2.846 2.2976-3.0591 2.0638-0.70157-0.76967-16.81 8.9443-16.81 10.137 0 0.64116-0.31874 0.847-0.70831 0.45743-0.85059-0.8506-7.035 2.6323-7.035 3.962 0 0.51314-0.42445 0.67065-0.94323 0.35003s-1.8877 0.13196-3.042 1.0057c-1.1543 0.87377-2.4118 1.6045-2.7944 1.6239-0.38258 0.0194-1.0672-40.592-1.5213-90.247zm126.74-50.347c-1.2284-2.6593-7.1398-16.035-13.136-29.724s-13.57-30.977-16.829-38.418c-3.2596-7.4405-6.0888-13.366-6.2872-13.168-0.19834 0.19834 0.46497 2.3038 1.474 4.6787 1.0091 2.3749 7.4713 18.203 14.36 35.173 10.939 26.947 20.959 47.987 22.241 46.705 0.22611-0.22612-0.59395-2.5869-1.8224-5.2462z"/>
     <path d="m502.52 484.52c-0.86943-52.623-0.11003-425.94 0.86843-426.92 0.3055-0.30551 12.435 3.7537 26.955 9.0204 40.498 14.69 86.123 31.134 134.86 48.607 53.738 19.267 53.382 19.126 54.074 21.403 0.30612 1.0078-2.6662 28.215-6.6052 60.461-3.9389 32.246-7.3957 61.366-7.6817 64.712-0.286 3.3462-1.5556 14.049-2.8213 23.783-1.2657 9.7345-2.52 20.188-2.7873 23.23-0.2673 3.042-0.97939 9.0155-1.5824 13.274-0.60302 4.2588-1.366 10.73-1.6954 14.381-1.5535 17.213-10.399 84.69-11.74 89.554-1.6443 5.9663-3.9907 8.0587-16.179 14.428-3.4927 1.8252-6.5993 3.5902-6.9035 3.9221-0.30421 0.33191-22.705 13.423-49.779 29.09-27.074 15.668-49.972 28.934-50.885 29.48-21.91 13.112-53.521 31.299-55.131 31.72-2.0667 0.54046-2.1506-0.87872-2.9646-50.147zm113.16-120.14c-7.4122-16.823-13.619-30.445-13.792-30.271-0.47811 0.47811 16.859 42.015 21.925 52.526 2.446 5.076 4.649 9.0272 4.8957 8.7806 0.24664-0.24662-5.6161-14.212-13.028-31.035z"/>
     <path d="m503.36 534.26c-1.0604-2.5869-1.0701-475.56-0.01-476.62 0.44335-0.44345 32.971 10.766 72.285 24.91s72.053 25.827 72.756 25.961c0.70257 0.13429 3.0197 0.99576 5.1491 1.9144 2.1294 0.91861 10.094 3.7874 17.699 6.375 29.133 9.9124 44.876 15.879 46.825 17.746 2.2724 2.1771 2.7537-2.7841-10.789 111.21-3.3247 27.987-7.8392 66.067-10.032 84.624-2.193 18.556-5.752 47.179-7.9089 63.606-2.1568 16.427-3.9993 30.863-4.0944 32.08-0.0951 1.2168-0.75068 2.8257-1.4569 3.5754-0.70619 0.74964-1.4529 1.836-1.6593 2.4142-0.20643 0.57817-19.789 12.352-43.517 26.164-42.72 24.868-120.62 70.1-129.72 75.317-4.4134 2.532-4.7673 2.5777-5.531 0.71453zm119.89-151.51c-0.93587-1.7269-1.7215-2.7899-1.7459-2.3622-0.0749 1.3149 2.4986 6.4509 2.9874 5.962 0.25299-0.25299-0.30573-1.8729-1.2416-3.5998zm-3.8737-8.843c-1.2339-2.3389-2.2655-3.8962-2.2924-3.4605-0.0785 1.272 3.6229 8.626 4.101 8.1479 0.23915-0.23916-0.57474-2.3485-1.8087-4.6874zm-3.8697-8.8561c-0.93587-1.7269-1.7215-2.7899-1.7459-2.3622-0.0749 1.3149 2.4986 6.4509 2.9874 5.962 0.25299-0.25299-0.30573-1.8729-1.2416-3.5998z"/>
     <path d="m502.71 528.67c-0.89686-9.4962-0.91991-465.68-0.0237-469.03 0.36685-1.3689 1.0957-2.4889 1.6196-2.4889s22.742 7.7554 49.373 17.234c26.631 9.4788 48.918 17.367 49.527 17.529 0.60841 0.16222 2.5075 0.86923 4.2202 1.5711 1.7127 0.70189 3.4806 1.2762 3.9286 1.2762s10.496 3.5184 22.328 7.8188c11.833 4.3003 31.718 11.486 44.191 15.967 38.525 13.843 40.863 14.835 41.566 17.636 0.72966 2.9072 0.43671 5.5827-13.452 122.85-15.126 127.71-20.22 167.81-21.677 170.64-1.5497 3.0045-3.4154 4.1949-40.729 25.987-92.057 53.764-138.43 80.477-139.72 80.477-0.24644 0-0.76541-3.3601-1.1533-7.4668z"/>
    </g>
   </g>
   <g stroke="#2396f3">
    <path d="m503.1 57.272-211.06 79.233 32.08 295.35 178.1 105.09" fill="none" stroke-width="1px"/>
    <path d="m343.87 422.64c0-0.64295 1.4396-3.5704 3.1991-6.5055 1.7595-2.935 3.9837-7.373 4.9427-9.862 0.95897-2.489 2.4914-5.5438 3.4054-6.7883 0.91401-1.2445 2.7538-4.8084 4.0885-7.9197 1.3347-3.1113 2.8852-6.1722 3.4457-6.802 0.56047-0.62982 2.3639-4.1937 4.0076-7.9197 1.6437-3.726 3.471-7.2899 4.0607-7.9197 0.58964-0.62981 2.4169-4.1937 4.0607-7.9197 1.6437-3.726 3.4357-7.2837 3.9821-7.906 0.54643-0.62225 2.3384-4.1799 3.9821-7.906 1.6437-3.726 3.4664-7.2899 4.0505-7.9197 0.58403-0.62982 2.166-3.6907 3.5155-6.802 1.3495-3.1113 2.9122-6.1722 3.4726-6.802s2.3639-4.1937 4.0076-7.9197 3.5199-7.3391 4.1693-8.0291 2.3924-4.1984 3.8735-7.7966c1.481-3.5981 3.2241-7.1066 3.8734-7.7965 0.64939-0.69 2.5256-4.3031 4.1693-8.0291s3.471-7.2899 4.0607-7.9197c0.58963-0.62982 2.4169-4.1937 4.0606-7.9197 1.6437-3.726 3.4775-7.2899 4.075-7.9197 0.59754-0.62982 1.5451-2.4179 2.1058-3.9736 0.56063-1.5557 3.2913-7.156 6.0681-12.445 2.7768-5.2892 8.2632-15.981 12.192-23.759s9.1133-17.961 11.521-22.628c2.4079-4.667 6.6534-13.067 9.4343-18.668 2.781-5.6004 6.5133-12.824 8.2939-16.052 1.7807-3.2283 3.2414-6.2831 3.2459-6.7883 4e-3 -0.50523 0.97305-2.446 2.1521-4.3128 1.1791-1.8668 3.3882-6.1943 4.9091-9.6168 1.5209-3.4224 3.2967-6.7872 3.946-7.4772 0.64938-0.69 2.3645-4.1306 3.8114-7.6459s3.5914-7.5328 4.7656-8.9279c1.9555-2.3234 2.1035 1.6462 1.7611 47.244-0.36148 48.142-0.46893 49.949-3.2627 54.872-3.0513 5.3775-8.3595 16.422-13.322 27.719-1.6401 3.7336-3.6589 8.0611-4.4864 9.6168-2.9833 5.6089-8.6487 17.673-11.423 24.325-1.557 3.7336-3.5778 7.8066-4.4905 9.0511-0.91272 1.2445-2.717 5.0629-4.0096 8.4854-1.2925 3.4224-2.8843 6.7063-3.5372 7.2974-0.65294 0.59116-1.1872 1.7367-1.1872 2.5456 0 1.1491 5.0324 1.4708 23.01 1.4708h23.01v40.73h-32.996c-26.306 0-33.309 0.31463-34.537 1.5518-1.4371 1.4474-2.8071 4.433-12.266 26.733-1.9797 4.667-4.2445 9.5036-5.0329 10.748s-2.509 5.063-3.8235 8.4854-2.8471 6.7317-3.4058 7.354c-0.55871 0.62226-2.4253 4.8225-4.148 9.3339l-3.1321 8.2025h-28.835c-18.939 0-28.835-0.40117-28.835-1.169z" fill="#2396f3" stroke-width="1.2375"/>
    <path d="m397.84 413.88c4.6528-15.787 11.542-36.817 15.31-46.731 3.7676-9.9148 6.8501-19.086 6.8501-20.381s10.234-33.694 22.741-71.999c12.508-38.305 22.741-71.262 22.741-73.238 0-1.9761 2.9172-10.262 6.4827-18.414 3.5655-8.1514 8.5373-22.463 11.049-31.803 2.5112-9.3404 7.4314-24.649 10.934-34.02 6.2862-16.819 6.369-14.841 6.4448 154.13l0.0769 171.16h-111.09z" fill="#2396f3" stroke-width="3.8572"/>
   </g>
   <g fill="none" stroke="#2396f3" stroke-width="1px">
    <path d="m502.21 54.646-210.18 81.858"/>
    <path d="m503.1 57.272-211.06 79.233z"/>
    <path d="m292.04 136.5 32.08 295.35 178.1 105.09v-482.3z"/>
   </g>
   <path d="m502.69 533.65c-0.65277-2.4593-0.74074-42.889-0.71616-329.13 0.0108-125.67 0.2353-146.41 1.59-146.93 0.86761-0.33293 13.188 3.4616 27.378 8.4323 14.19 4.9707 26.299 9.1306 26.907 9.2442 0.60841 0.11359 1.604 0.51346 2.2124 0.88861 0.60841 0.37515 3.5951 1.4303 6.6372 2.3449 12.048 3.6221 143.93 51.426 149.06 54.031 3.6779 1.867 4.1476 2.5736 4.1427 6.2316-9e-3 6.1683-19.695 173.97-29.425 250.81-3.8495 30.399-5.4795 40.31-6.8879 41.881-2.2324 2.4895-18.765 12.307-103.61 61.529-80.557 46.731-74.307 43.162-75.566 43.162-0.58121 0-1.354-1.12-1.7174-2.4889z" fill="#0069c0" stroke="#2396f3" stroke-width="1.1062"/>
   <path d="m496.46 532.36c-2.1294-1.398-11.09-6.7728-19.912-11.944-80.064-46.933-149.03-87.689-150.19-88.75-0.95114-0.87423-6.5576-48.686-17.331-147.8-8.7588-80.579-15.842-146.59-15.74-146.69 0.10175-0.0987 45.981-17.357 101.95-38.352s102.67-38.524 103.76-38.954c1.8898-0.74184 1.974 0.61481 1.6593 26.736l-0.33147 27.518-3.14 6.4992c-1.727 3.5746-3.7912 8.3035-4.587 10.509-0.79585 2.2053-2.2421 5.503-3.2138 7.3282s-1.7699 3.6795-1.7736 4.1205c-4e-3 0.44107-1.5002 4.0625-3.3254 8.0476-1.8252 3.9851-3.3186 7.5439-3.3186 7.9084 0 0.60923-5.7566 14.111-9.3624 21.959-0.83862 1.8252-6.8392 16.012-13.335 31.527-6.4955 15.514-12.188 28.958-12.649 29.874-0.46162 0.9161-3.4482 7.8851-6.637 15.487-3.1887 7.6016-6.9344 16.31-8.3238 19.352-1.3894 3.042-2.8954 6.7754-3.3467 8.2965s-1.2201 3.2693-1.7084 3.8851-1.987 4.1003-3.3303 7.7434c-1.3433 3.6431-2.8367 7.1276-3.3186 7.7434-0.48188 0.61579-1.9752 4.1003-3.3186 7.7434s-2.8766 7.1757-3.4074 7.8503c-0.5307 0.67463-1.9552 4.105-3.1656 7.623-1.2104 3.518-2.6349 6.9483-3.1656 7.623s-2.0156 4.0778-3.2997 7.5626c-1.2841 3.4848-2.8173 7.2182-3.407 8.2965-0.58974 1.0782-4.6287 10.423-8.9755 20.766-4.3468 10.343-8.5865 20.299-9.4217 22.124-2.1278 4.6504-11.554 27.345-11.554 27.818 0 0.71653 46.976 0.1797 49.64-0.56728 2.0669-0.57953 3.3146-2.6182 5.8562-9.5689 9.7553-26.678 14.168-38.438 15.766-42.018 0.81487-1.8252 2.3538-6.0564 3.4198-9.4026s2.4311-6.7063 3.0335-7.4668c0.82142-1.037 7.6995-1.3827 27.508-1.3827h26.413v91.814c0 50.498-0.12445 91.784-0.27655 91.748-0.1521-0.0366-2.0188-1.2103-4.1482-2.6083z" fill="#2396f3" stroke="#2396f3" stroke-width="1.1062"/>
   <flowRoot transform="matrix(8.2676 0 0 11.148 -2435 -1581.2)" fill="#000000" font-family="sans-serif" font-size="40px" letter-spacing="0px" word-spacing="0px" style="line-height:1.25" xml:space="preserve"><flowRegion><rect x="330.75" y="144.25" width="353.98" height="286.5"/></flowRegion><flowPara fill="#f5f5f5" font-family="Roboto" font-weight="300">&lt;|&gt;</flowPara></flowRoot>
  </g>
 </g>
</svg>
