<?xml version="1.0" encoding="UTF-8" standalone="no"?>
<!-- Created with Inkscape (http://www.inkscape.org/) -->

<svg
   xmlns:dc="http://purl.org/dc/elements/1.1/"
   xmlns:cc="http://creativecommons.org/ns#"
   xmlns:rdf="http://www.w3.org/1999/02/22-rdf-syntax-ns#"
   xmlns:svg="http://www.w3.org/2000/svg"
   xmlns="http://www.w3.org/2000/svg"
   xmlns:sodipodi="http://sodipodi.sourceforge.net/DTD/sodipodi-0.dtd"
   xmlns:inkscape="http://www.inkscape.org/namespaces/inkscape"
   version="1.1"
   id="svg869"
   width="1000"
   height="600"
   viewBox="0 0 1000 600"
   sodipodi:docname="codesign.svg"
   inkscape:version="0.92.3 (2405546, 2018-03-11)">
  <metadata
     id="metadata875">
    <rdf:RDF>
      <cc:Work
         rdf:about="">
        <dc:format>image/svg+xml</dc:format>
        <dc:type
           rdf:resource="http://purl.org/dc/dcmitype/StillImage" />
        <dc:title></dc:title>
      </cc:Work>
    </rdf:RDF>
  </metadata>
  <defs
     id="defs873" />
  <sodipodi:namedview
     pagecolor="#ffffff"
     bordercolor="#666666"
     borderopacity="1"
     objecttolerance="10"
     gridtolerance="10"
     guidetolerance="10"
     inkscape:pageopacity="0"
     inkscape:pageshadow="2"
     inkscape:window-width="1440"
     inkscape:window-height="837"
     id="namedview871"
     showgrid="false"
     inkscape:zoom="0.904"
     inkscape:cx="500"
     inkscape:cy="269.17064"
     inkscape:window-x="0"
     inkscape:window-y="30"
     inkscape:window-maximized="1"
     inkscape:current-layer="g1035" />
  <path
     style="fill:#b32e31;fill-opacity:1;stroke:#b32e31;stroke-width:1.10619473;stroke-opacity:1"
     d=""
     id="path921"
     inkscape:connector-curvature="0" />
  <path
     style="fill:#e03237;fill-opacity:1;stroke:#b32e31;stroke-width:1.10619473;stroke-opacity:1"
     d=""
     id="path929"
     inkscape:connector-curvature="0" />
  <path
     style="fill:#e03237;fill-opacity:1;stroke:#b32e31;stroke-width:1.10619473;stroke-opacity:1"
     d=""
     id="path941"
     inkscape:connector-curvature="0" />
  <path
     style="fill:#2396f3;fill-opacity:1;stroke:#b32e31;stroke-width:1.10619473;stroke-opacity:1"
     d=""
     id="path959"
     inkscape:connector-curvature="0" />
  <path
     style="fill:#2396f3;fill-opacity:1;stroke:#b32e31;stroke-width:1.10619473;stroke-opacity:1"
     d=""
     id="path961"
     inkscape:connector-curvature="0" />
  <path
     style="fill:#2396f3;fill-opacity:1;stroke:#b32e31;stroke-width:1.10619473;stroke-opacity:1"
     d=""
     id="path973"
     inkscape:connector-curvature="0" />
  <path
     style="fill:#2396f3;fill-opacity:1;stroke:#b32e31;stroke-width:1.10619473;stroke-opacity:1"
     d=""
     id="path1167"
     inkscape:connector-curvature="0" />
  <path
     style="fill:#2396f3;fill-opacity:1;stroke:#b32e31;stroke-width:1.10619473;stroke-opacity:1"
     d=""
     id="path1169"
     inkscape:connector-curvature="0" />
  <path
     style="fill:#1186c1;fill-opacity:1;stroke:#2396f3;stroke-width:1.10619473;stroke-opacity:1"
     d=""
     id="path1173"
     inkscape:connector-curvature="0" />
  <path
     style="fill:#1186c1;fill-opacity:1;stroke:#2396f3;stroke-width:1.10619473;stroke-opacity:1"
     d=""
     id="path1175"
     inkscape:connector-curvature="0" />
  <path
     style="fill:#1186c1;fill-opacity:1;stroke:#2396f3;stroke-width:1.10619473;stroke-opacity:1"
     d=""
     id="path1177"
     inkscape:connector-curvature="0" />
  <path
     style="fill:#1186c1;fill-opacity:1;stroke:#2396f3;stroke-width:1.10619473;stroke-opacity:1"
     d=""
     id="path1179"
     inkscape:connector-curvature="0" />
  <path
     style="fill:#1186c1;fill-opacity:1;stroke:#2396f3;stroke-width:1.10619473;stroke-opacity:1"
     d=""
     id="path1181"
     inkscape:connector-curvature="0" />
  <path
     style="fill:#1186c1;fill-opacity:1;stroke:#2396f3;stroke-width:1.10619473;stroke-opacity:1"
     d=""
     id="path1183"
     inkscape:connector-curvature="0" />
  <path
     style="fill:#2396f3;fill-opacity:1;stroke:#1186a1;stroke-width:1.10619473;stroke-opacity:1"
     d=""
     id="path1201"
     inkscape:connector-curvature="0" />
  <path
     style="fill:#1186a1;fill-opacity:1;stroke:#1186a1;stroke-width:1.10619473;stroke-opacity:1"
     d=""
     id="path1207"
     inkscape:connector-curvature="0" />
  <g
     id="g880"
     transform="translate(-71.902657,-13.274336)">
    <g
       id="g1063">
      <g
         id="g1091"
         transform="translate(30.973454,11.061947)">
        <g
           id="g1260">
          <g
             id="g1234">
            <g
               id="g1209">
              <g
                 id="g1166">
                <path
                   inkscape:connector-curvature="0"
                   id="path1193"
                   d="M 502.21239,54.646018 V 536.9469 L 684.73451,430.75221 720.13274,134.29204 Z"
                   style="fill:none;stroke:#1186a1;stroke-width:1px;stroke-linecap:butt;stroke-linejoin:miter;stroke-opacity:1" />
                <path
                   inkscape:connector-curvature="0"
                   id="path1195"
                   d="m 503.09735,443.32385 v -91.91927 h 30.97345 c 24.5356,0 30.97345,0.29627 30.97345,1.4254 0,0.78397 0.88625,3.16372 1.96944,5.28834 1.08319,2.12462 2.88854,6.33663 4.01187,9.36 1.12334,3.02339 2.68895,6.99042 3.47915,8.81564 2.65283,6.12761 7.29514,17.64012 9.99095,24.77667 1.47044,3.89266 3.10522,7.62606 3.63283,8.29646 0.52762,0.6704 1.81186,3.83229 2.85387,7.02643 l 1.89456,5.80752 h 23.69429 c 19.39075,0 23.69428,-0.27683 23.69428,-1.5242 0,-2.07574 -1.79861,-6.36844 -11.61505,-27.72145 -1.52102,-3.30857 -2.76548,-6.31605 -2.76548,-6.68331 0,-0.36724 -1.42697,-3.75814 -3.17104,-7.53531 -1.74409,-3.77718 -5.03337,-11.09878 -7.30952,-16.27024 -2.27615,-5.17146 -5.32927,-11.98521 -6.7847,-15.14167 -1.45544,-3.15647 -2.64625,-6.01741 -2.64625,-6.35768 0,-0.34025 -1.43968,-3.73114 -3.1993,-7.53531 -1.75961,-3.80417 -5.05142,-11.14786 -7.31513,-16.31932 -4.92999,-11.26264 -7.00146,-15.8776 -11.51291,-25.64933 -1.87833,-4.06841 -3.41514,-7.69813 -3.41514,-8.06604 0,-0.36791 -1.42697,-3.75935 -3.17104,-7.53651 -1.74408,-3.77718 -5.00259,-11.09879 -7.24113,-16.27025 -2.23855,-5.17146 -5.29167,-11.94133 -6.78471,-15.04415 -1.49304,-3.10283 -2.71462,-5.96377 -2.71462,-6.35766 0,-0.39391 -1.43969,-3.82867 -3.1993,-7.63285 -1.75961,-3.80417 -5.0167,-11.14786 -7.23798,-16.31932 -2.22127,-5.17146 -4.97774,-11.39381 -6.12548,-13.82743 -5.15162,-10.92328 -8.87972,-19.27311 -8.87972,-19.88794 0,-0.3679 -1.42697,-3.75934 -3.17104,-7.53651 -1.74408,-3.77718 -5.00259,-11.09878 -7.24114,-16.27024 -2.23855,-5.17146 -5.29167,-11.94133 -6.7847,-15.04416 -1.49304,-3.10282 -2.71462,-5.96377 -2.71462,-6.35766 0,-0.3939 -1.43505,-3.82868 -3.18899,-7.63284 -9.81291,-21.28345 -8.97915,-17.09049 -8.97915,-45.15652 V 57.271881 l 3.59513,1.209152 c 1.97732,0.665033 4.09292,1.581126 4.70133,2.035762 0.6084,0.454636 4.34181,1.845681 8.29646,3.091212 3.95464,1.245531 11.42146,3.844996 16.59292,5.776589 15.27731,5.706231 29.96051,10.980375 37.05752,13.310901 3.65044,1.198739 8.13053,2.852309 9.95575,3.674599 1.82522,0.82229 6.05642,2.345178 9.40266,3.384193 3.34623,1.039016 7.57743,2.532378 9.40265,3.318584 1.82522,0.786206 6.05642,2.301654 9.40265,3.367664 3.34624,1.066009 6.58186,2.323069 7.19027,2.793465 0.60841,0.470397 4.09292,1.703688 7.74336,2.740648 3.65045,1.03696 8.13053,2.56179 9.95576,3.3885 1.82522,0.82671 10.5365,4.08536 19.3584,7.24145 8.82191,3.15609 20.51991,7.34072 25.99558,9.29917 5.47566,1.95845 13.19137,4.66561 17.14602,6.01592 3.95464,1.35031 8.68362,3.11634 10.50884,3.92452 1.82523,0.80817 4.74264,1.82449 6.48315,2.25848 3.10458,0.77412 3.14999,0.89631 2.39554,6.44593 -0.42296,3.11126 -2.20096,17.85264 -3.95113,32.75862 -1.75015,14.90597 -4.71913,40.04424 -6.59771,55.86283 -1.87858,15.81858 -4.61137,38.96571 -6.07288,51.43805 -1.4615,12.47235 -3.40606,28.65044 -4.32125,35.95133 -0.91518,7.30088 -3.20952,26.46571 -5.09851,42.58849 -5.06532,43.23319 -8.56024,70.90388 -8.99865,71.24614 -0.36014,0.28115 -165.04946,96.16476 -175.44254,102.14422 l -4.70132,2.70482 z"
                   style="fill:#1186a1;fill-opacity:1;stroke:#1186a1;stroke-width:1.10619473;stroke-opacity:1" />
                <path
                   inkscape:connector-curvature="0"
                   id="path1197"
                   d="m 592.12695,418.94403 c -0.41198,-1.79135 -1.93912,-5.8324 -3.3936,-8.98007 -1.45449,-3.14769 -2.64452,-6.23446 -2.64452,-6.85952 0,-0.62505 -1.40989,-4.44525 -3.13312,-8.48935 -1.7232,-4.04411 -3.7431,-9.48479 -4.48868,-12.09041 -0.74555,-2.6056 -1.96325,-5.80338 -2.70598,-7.10619 -0.74273,-1.30281 -1.98728,-4.5006 -2.76566,-7.10623 -1.40336,-4.6977 -5.81039,-16.12698 -7.53528,-19.54208 -0.75868,-1.50207 -5.64409,-1.82515 -31.62131,-2.09107 l -30.724,-0.31456 5.4e-4,-21.30018 5.5e-4,-21.3002 h 22.45481 22.4548 l -0.73003,-2.66483 c -0.40152,-1.46564 -2.34318,-6.39559 -4.31479,-10.95541 -3.34794,-7.74285 -5.35378,-12.48602 -11.89537,-28.12875 -3.57187,-8.5413 -8.01814,-19.06603 -11.63309,-27.53658 -1.66797,-3.90841 -5.566,-13.2353 -8.66229,-20.72644 -3.09628,-7.49112 -6.08947,-14.12656 -6.65155,-14.7454 -0.60586,-0.66706 -0.99172,-22.36558 -0.94776,-53.29659 0.0557,-39.19457 0.37479,-51.434953 1.28279,-49.210503 0.66473,1.628502 2.84229,6.747613 4.839,11.375773 1.99672,4.62818 3.6304,8.7922 3.63039,9.25341 -1e-5,0.4612 1.18253,3.60308 2.62785,6.98193 8.04001,18.7959 9.38144,22.05609 9.38144,22.80068 0,0.44966 1.42182,4.08077 3.15963,8.06911 6.87543,15.77952 9.94142,23.12352 9.94141,23.81285 0,0.39687 1.7195,4.70587 3.82113,9.57555 2.10162,4.8697 3.82115,9.14236 3.82115,9.49481 0,0.58369 1.46948,4.12743 9.38142,22.62395 1.44532,3.37885 2.62786,6.44199 2.62786,6.80696 0,0.36497 1.47386,4.12927 3.27525,8.36513 l 6.55052,15.4031 c 1.80139,4.23588 3.27527,8.04843 3.27527,8.47241 0,0.42396 1.16469,3.48708 2.58822,6.80696 1.42354,3.31985 4.42425,10.56632 6.66826,16.10326 2.24401,5.53692 5.50089,13.39957 7.23755,17.47259 1.73664,4.073 3.15752,7.70352 3.15752,8.06783 0,0.36432 1.17526,3.42743 2.6117,6.80696 1.43643,3.37952 4.43961,10.67481 6.67375,16.21172 4.86531,12.05785 6.90972,16.99892 11.36257,27.46196 1.8538,4.35591 3.37055,8.24215 3.37055,8.63605 -1e-5,0.39391 1.40833,4.02502 3.12964,8.06911 1.72133,4.04411 4.96442,11.88313 7.20692,17.42006 2.24251,5.53692 4.97281,12.199 6.06739,14.80462 2.37864,5.66239 5.43112,13.73155 5.43112,14.35705 0,0.24615 -9.77265,0.44754 -21.717,0.44754 h -21.717 z"
                   style="fill:#1186a1;fill-opacity:1;stroke:#1186a1;stroke-width:1.13712609;stroke-opacity:1" />
                <path
                   inkscape:connector-curvature="0"
                   id="path1199"
                   d="m 503.33817,312.55575 c 0.18112,-98.33517 1.29637,-128.88886 4.4949,-123.13827 4.55055,8.18142 23.67387,41.4403 41.77785,72.65921 6.09852,10.51651 16.06527,27.72525 22.14826,38.24172 6.08305,10.51645 16.24303,28.0694 22.57783,39.00653 6.33476,10.93711 15.01968,26.08085 19.29987,33.6527 4.28015,7.57183 14.8706,25.83977 23.53433,40.59539 8.66374,14.75565 15.75236,27.49012 15.75247,28.29888 1.2e-4,0.80873 -33.71077,1.47045 -74.91309,1.47045 h -74.91324 z"
                   style="fill:#1186a1;fill-opacity:1;stroke:#1186a1;stroke-width:3.42827535;stroke-opacity:1" />
                <path
                   inkscape:connector-curvature="0"
                   id="path1209"
                   d="m 502.5397,444.75063 c -0.45416,-49.65525 -0.54443,-124.19895 -0.2006,-165.65265 0.34383,-41.45372 0.63607,-108.34882 0.64943,-148.65579 0.0134,-40.306967 0.30818,-73.285396 0.65517,-73.285396 0.34699,0 2.48161,0.78465 4.7436,1.743667 2.26198,0.959017 27.01093,9.985816 54.99766,20.059555 27.98672,10.073739 58.35177,21.030773 67.47787,24.348964 19.42757,7.06374 72.43446,26.08267 81.46476,29.22965 5.1497,1.79462 6.34375,2.69788 6.81564,5.15583 0.31467,1.63902 0.054,3.60648 -0.57921,4.37214 -0.63323,0.76566 -0.8693,3.13015 -0.52457,5.25442 0.3885,2.39411 0.17733,3.86232 -0.55553,3.86232 -0.74079,0 -0.96069,1.65228 -0.58884,4.42457 0.33306,2.48317 0.0988,4.73027 -0.53386,5.12129 -0.62329,0.38521 -0.87058,2.61095 -0.55308,4.97809 0.34695,2.58667 0.1204,4.28136 -0.57233,4.28136 -0.69913,0 -0.91498,1.72676 -0.5531,4.42478 0.36188,2.69802 0.14604,4.42478 -0.5531,4.42478 -0.69911,0 -0.91498,1.7267 -0.55312,4.42457 0.33307,2.48316 0.0988,4.73027 -0.53386,5.12128 -0.62328,0.38522 -0.87057,2.61096 -0.55307,4.9781 0.34694,2.58667 0.1204,4.28136 -0.57234,4.28136 -0.69911,0 -0.91497,1.7267 -0.55312,4.42457 0.33307,2.48316 0.0988,4.73027 -0.53386,5.12128 -0.62328,0.38522 -0.87057,2.61096 -0.55307,4.9781 0.34695,2.58667 0.1204,4.28136 -0.57234,4.28136 -0.69911,0 -0.91497,1.7267 -0.55312,4.42457 0.33182,2.47389 0.0985,4.73051 -0.52935,5.1185 -0.61756,0.38167 -0.85185,2.3638 -0.52066,4.40473 0.33357,2.05544 0.0881,4.02853 -0.55034,4.42307 -0.67624,0.41795 -0.87372,2.45585 -0.47786,4.93139 0.41677,2.60633 0.2043,4.50977 -0.55586,4.97958 -0.71958,0.44472 -0.98046,2.30126 -0.62833,4.47127 0.33121,2.04093 0.12774,4.004 -0.45214,4.36239 -0.57988,0.35838 -1.0604,2.48309 -1.06781,4.72159 -0.0246,7.39223 -0.55517,12.90102 -1.36862,14.20763 -0.44105,0.70844 -0.79743,2.94849 -0.79197,4.97788 0.006,2.02938 -0.27547,5.92983 -0.62431,8.66766 -0.34885,2.73784 -0.73915,6.72014 -0.86733,8.84956 -0.12818,2.12943 -0.59392,4.45132 -1.03497,5.15977 -0.44105,0.70844 -0.81333,2.94848 -0.82728,4.97788 -0.0438,6.37817 -0.70611,12.46636 -1.57485,14.47766 -0.46046,1.06607 -0.53281,3.15116 -0.16076,4.63353 0.37206,1.48237 0.16741,3.00983 -0.45476,3.39436 -0.62218,0.38451 -1.1373,2.53062 -1.14471,4.76911 -0.0221,6.6562 -0.66547,12.79071 -1.55835,14.85787 -0.46047,1.06607 -0.53281,3.15116 -0.16076,4.63353 0.3811,1.51844 0.1365,3.02892 -0.56021,3.45952 -0.74093,0.45792 -1.00649,2.48049 -0.66245,5.04546 0.31627,2.35799 0.0698,4.59288 -0.54859,4.9751 -0.61756,0.38167 -0.85185,2.36379 -0.52066,4.40472 0.33426,2.05974 0.0882,4.02845 -0.55309,4.42478 -0.64125,0.39631 -0.88735,2.36503 -0.5531,4.42478 0.33539,2.06674 0.0884,4.02834 -0.55759,4.42755 -0.65821,0.40679 -0.91143,2.56835 -0.58553,4.99815 0.34695,2.58667 0.1204,4.28136 -0.57234,4.28136 -0.69911,0 -0.91497,1.72671 -0.55311,4.42457 0.33181,2.4739 0.0985,4.73051 -0.52936,5.11851 -0.61756,0.38167 -0.85185,2.36379 -0.52066,4.40472 0.33539,2.06675 0.0884,4.02834 -0.55758,4.42756 -0.65823,0.4068 -0.91143,2.56838 -0.5855,4.99839 0.31586,2.35489 0.1917,4.04517 -0.2759,3.75618 -0.46761,-0.289 -1.14033,1.92433 -1.49494,4.9185 -0.60218,5.08442 -4.08135,10.72466 -5.6487,9.15733 -0.3549,-0.3549 -0.64527,-0.0352 -0.64527,0.71056 0,0.74572 -0.50131,1.04602 -1.11401,0.66735 -0.61271,-0.37867 -1.41155,0.0868 -1.77521,1.03455 -0.36365,0.94769 -1.10682,1.44765 -1.65147,1.11103 -0.54466,-0.33661 -0.99029,-0.0555 -0.99029,0.62474 0,0.68022 -0.47963,0.94033 -1.06585,0.57803 -0.5862,-0.3623 -2.03809,0.31352 -3.22639,1.50182 -1.18831,1.18831 -2.45093,1.87018 -2.80584,1.51528 -0.3549,-0.3549 -0.64528,-0.0352 -0.64528,0.71056 0,0.74572 -0.47964,1.05942 -1.06585,0.69712 -0.58621,-0.3623 -1.99661,0.23055 -3.13422,1.31746 -1.1376,1.08691 -2.77357,2.12799 -3.63547,2.31353 -0.86192,0.18553 -2.11412,1.04893 -2.78269,1.91864 -0.66856,0.86973 -1.53969,1.25719 -1.93584,0.86104 -0.39614,-0.39615 -0.72027,-0.11018 -0.72027,0.63558 0,0.74572 -0.47963,1.05941 -1.06585,0.69711 -0.5862,-0.3623 -1.9966,0.23055 -3.13421,1.31747 -1.1376,1.0869 -2.77358,2.12798 -3.63548,2.31353 -0.86191,0.18553 -2.11411,1.04892 -2.78269,1.91863 -0.66856,0.86973 -1.53969,1.25719 -1.93584,0.86104 -0.39614,-0.39615 -0.72026,-0.11017 -0.72026,0.63558 0,0.74572 -0.47964,1.05941 -1.06585,0.69711 -0.58621,-0.3623 -1.99661,0.23056 -3.13422,1.31747 -1.1376,1.0869 -2.77357,2.12799 -3.63547,2.31353 -0.86192,0.18553 -2.11412,1.04892 -2.78269,1.91864 -0.66856,0.86972 -1.53969,1.25719 -1.93584,0.86104 -0.39614,-0.39615 -0.72027,-0.11018 -0.72027,0.63557 0,0.74572 -0.47963,1.05942 -1.06585,0.69712 -0.58621,-0.36231 -2.03809,0.31351 -3.22639,1.50182 -1.18831,1.18831 -2.45093,1.87018 -2.80585,1.51528 -0.3549,-0.3549 -0.64527,-0.0352 -0.64527,0.71056 0,0.74572 -0.50131,1.04602 -1.11401,0.66735 -0.61271,-0.37867 -1.41154,0.0868 -1.77521,1.03455 -0.36365,0.94769 -1.10682,1.44765 -1.65147,1.11103 -0.54465,-0.33661 -0.99029,-0.0555 -0.99029,0.62474 0,0.68022 -0.47963,0.94033 -1.06585,0.57803 -0.58621,-0.3623 -2.03809,0.31352 -3.22639,1.50182 -1.18831,1.18831 -2.45093,1.87018 -2.80584,1.51528 -0.3549,-0.3549 -0.64528,-0.0352 -0.64528,0.71056 0,0.74572 -0.4224,1.09479 -0.93867,0.77572 -0.51626,-0.31907 -1.90462,0.27379 -3.08523,1.31746 -1.1806,1.04367 -2.8738,2.04939 -3.76265,2.23493 -0.88886,0.18553 -2.23834,1.15181 -2.99885,2.14727 -0.76051,0.99545 -1.38274,1.43774 -1.38274,0.98285 0,-0.45487 -1.49336,0.0551 -3.31858,1.13328 -1.82522,1.07818 -3.31859,2.38018 -3.31859,2.89331 0,0.51314 -0.47963,0.63654 -1.06584,0.27424 -0.58622,-0.3623 -2.07958,0.355 -3.31859,1.59402 -1.239,1.239 -2.25274,1.9757 -2.25274,1.63709 0,-0.3386 -1.49336,0.26652 -3.31858,1.3447 -1.82522,1.07819 -3.31858,2.38018 -3.31858,2.89331 0,0.51314 -0.47963,0.63655 -1.06585,0.27425 -0.58622,-0.3623 -2.0381,0.31351 -3.2264,1.50182 -1.18831,1.18831 -2.45093,1.87018 -2.80584,1.51528 -0.3549,-0.3549 -0.64528,-0.0352 -0.64528,0.71056 0,0.74572 -0.47963,1.05942 -1.06584,0.69712 -0.58622,-0.36231 -1.99662,0.23055 -3.13422,1.31746 -1.13761,1.0869 -2.77357,2.12799 -3.63548,2.31353 -0.86191,0.18553 -2.11412,1.04893 -2.78268,1.91864 -0.66857,0.86972 -1.5397,1.25719 -1.93584,0.86104 -0.39615,-0.39615 -0.72027,-0.11014 -0.72027,0.63558 0,0.74571 -0.47963,1.05941 -1.06585,0.69711 -0.58622,-0.3623 -2.07958,0.355 -3.31858,1.59401 -1.23901,1.23901 -2.50164,2.25274 -2.80584,2.25274 h -1.45071 c -0.49368,0 -2.09981,1.12002 -3.56917,2.48893 -1.46935,1.36892 -2.84595,2.29761 -3.0591,2.06377 -0.70157,-0.76967 -16.8104,8.94428 -16.8104,10.13701 0,0.64116 -0.31874,0.847 -0.70831,0.45743 -0.85059,-0.8506 -7.03505,2.63234 -7.03505,3.96195 0,0.51314 -0.42445,0.67065 -0.94323,0.35003 -0.51878,-0.32062 -1.88769,0.13196 -3.04204,1.00573 -1.15434,0.87377 -2.41182,1.6045 -2.7944,1.62386 -0.38258,0.0194 -1.06718,-40.59184 -1.52134,-90.24709 z m 126.74395,-50.34724 c -1.22843,-2.65931 -7.1398,-16.03531 -13.13639,-29.72447 -5.99659,-13.68916 -13.56982,-30.97709 -16.82941,-38.41764 -3.25959,-7.44054 -6.08881,-13.36598 -6.28715,-13.16763 -0.19834,0.19834 0.46497,2.30375 1.47403,4.6787 1.00906,2.37494 7.47128,18.20266 14.36049,35.17272 10.93948,26.94702 20.95863,47.9867 22.2408,46.70452 0.22611,-0.22612 -0.59395,-2.58691 -1.82237,-5.2462 z"
                   style="fill:#1186a1;fill-opacity:1;stroke:#1186a1;stroke-width:1.10619473;stroke-opacity:1" />
                <path
                   inkscape:connector-curvature="0"
                   id="path1211"
                   d="m 502.52418,484.51892 c -0.86943,-52.62271 -0.11003,-425.941463 0.86843,-426.919924 0.3055,-0.305507 12.4354,3.753677 26.95532,9.020409 40.49822,14.689698 86.12312,31.134443 134.85659,48.606835 53.73844,19.26682 53.38212,19.12578 54.07392,21.40344 0.30612,1.00783 -2.66621,28.21517 -6.60517,60.46074 -3.93894,32.24558 -7.39574,61.36615 -7.68173,64.71239 -0.286,3.34624 -1.5556,14.04867 -2.82132,23.78319 -1.26573,9.73451 -2.52003,20.18805 -2.78733,23.23009 -0.2673,3.04203 -0.97939,9.01548 -1.58243,13.27433 -0.60302,4.25885 -1.36596,10.73009 -1.69543,14.38053 -1.55347,17.21264 -10.39915,84.68995 -11.73978,89.55442 -1.64429,5.96627 -3.99066,8.05874 -16.17857,14.42788 -3.49272,1.82522 -6.59929,3.59016 -6.90349,3.92206 -0.30421,0.33191 -22.70465,13.4226 -49.77877,29.0904 -27.07411,15.66781 -49.97234,28.93374 -50.88495,29.47986 -21.9104,13.1115 -53.5212,31.2991 -55.13065,31.71998 -2.06674,0.54046 -2.15064,-0.87872 -2.96464,-50.14663 z M 615.68031,364.37471 c -7.41222,-16.82266 -13.61859,-30.44482 -13.79195,-30.27147 -0.47811,0.47811 16.85941,42.01452 21.9246,52.52595 2.446,5.07598 4.64904,9.02725 4.89568,8.78061 0.24664,-0.24662 -5.61612,-14.21242 -13.02833,-31.03509 z"
                   style="fill:#1186a1;fill-opacity:1;stroke:#1186a1;stroke-width:1.10619473;stroke-opacity:1" />
                <path
                   inkscape:connector-curvature="0"
                   id="path1213"
                   d="m 503.36016,534.25793 c -1.06038,-2.58692 -1.07011,-475.555987 -0.01,-476.616514 0.44335,-0.443453 32.9714,10.766214 72.28454,24.91037 39.31314,14.144156 72.05327,25.826524 72.75584,25.960824 0.70257,0.13429 3.01966,0.99576 5.14908,1.91438 2.12943,0.91861 10.09403,3.78735 17.69912,6.37498 29.1326,9.91235 44.87551,15.87878 46.82461,17.74613 2.27241,2.1771 2.7537,-2.78412 -10.7888,111.21489 -3.32468,27.98672 -7.83919,66.06748 -10.03224,84.62389 -2.19305,18.55642 -5.75203,47.17921 -7.90886,63.6062 -2.15682,16.42699 -3.9993,30.86283 -4.09439,32.07964 -0.0951,1.21682 -0.75068,2.82573 -1.45686,3.57538 -0.70619,0.74964 -1.45288,1.83604 -1.65929,2.4142 -0.20643,0.57817 -19.78904,12.35208 -43.51692,26.16426 -42.71991,24.86759 -120.62238,70.10033 -129.71506,75.31684 -4.4134,2.53199 -4.76726,2.57771 -5.53097,0.71453 z M 623.25033,382.75238 c -0.93587,-1.72691 -1.7215,-2.78991 -1.74586,-2.36223 -0.0749,1.3149 2.49863,6.45086 2.98745,5.96203 0.25299,-0.25299 -0.30573,-1.8729 -1.24159,-3.5998 z m -3.87367,-8.84298 c -1.23392,-2.33893 -2.26549,-3.89616 -2.29237,-3.46049 -0.0785,1.27203 3.62291,8.62605 4.10103,8.14794 0.23915,-0.23916 -0.57474,-2.3485 -1.80866,-4.68745 z m -3.86969,-8.85614 c -0.93587,-1.72691 -1.72151,-2.78991 -1.74586,-2.36223 -0.0749,1.3149 2.49862,6.45086 2.98745,5.96204 0.25299,-0.25299 -0.30573,-1.8729 -1.24159,-3.59981 z"
                   style="fill:#1186a1;fill-opacity:1;stroke:#1186a1;stroke-width:1.10619473;stroke-opacity:1" />
                <path
                   inkscape:connector-curvature="0"
                   id="path1215"
                   d="m 502.71207,528.67228 c -0.89686,-9.49622 -0.91991,-465.68235 -0.0237,-469.026548 0.36685,-1.368916 1.0957,-2.488938 1.61965,-2.488938 0.52395,0 22.74189,7.755385 49.3732,17.23419 26.6313,9.478804 48.91834,17.366917 49.52674,17.52914 0.60841,0.162224 2.50752,0.869227 4.22025,1.571121 1.71272,0.701893 3.48062,1.276168 3.92865,1.276168 0.44803,0 10.49582,3.518444 22.32843,7.818767 11.8326,4.30032 31.71847,11.48554 44.19082,15.96716 38.52477,13.84288 40.86297,14.83494 41.56593,17.63574 0.72966,2.90725 0.43671,5.58266 -13.45204,122.84824 -15.12555,127.70823 -20.22033,167.81369 -21.67689,170.63759 -1.5497,3.00447 -3.41544,4.19491 -40.72904,25.98729 -92.05664,53.76413 -138.43361,80.47689 -139.71873,80.47689 -0.24644,0 -0.76541,-3.36006 -1.15327,-7.46681 z"
                   style="fill:#1186a1;fill-opacity:1;stroke:#1186a1;stroke-width:1.10619473;stroke-opacity:1" />
                <path
                   inkscape:connector-curvature="0"
                   id="path1219"
                   d="M 503.09735,57.271881 292.0354,136.50442 324.11504,431.85841 502.21239,536.9469"
                   style="fill:none;stroke:#2396f3;stroke-width:1px;stroke-linecap:butt;stroke-linejoin:miter;stroke-opacity:1" />
                <path
                   inkscape:connector-curvature="0"
                   id="path1225"
                   d="m 343.87274,422.64419 c 0,-0.64295 1.43959,-3.57041 3.19909,-6.50546 1.75951,-2.93505 3.98371,-7.37296 4.94268,-9.86201 0.95897,-2.48904 2.49139,-5.54378 3.40541,-6.7883 0.91401,-1.24453 2.75385,-4.80838 4.0885,-7.91969 1.33467,-3.1113 2.88522,-6.17223 3.44568,-6.80204 0.56047,-0.62982 2.36389,-4.19368 4.00762,-7.91969 1.64372,-3.72601 3.47103,-7.28988 4.06066,-7.9197 0.58964,-0.62981 2.41693,-4.19368 4.06066,-7.91968 1.64373,-3.72602 3.43567,-7.2837 3.98209,-7.90597 0.54643,-0.62225 2.33837,-4.17994 3.9821,-7.90595 1.64372,-3.72601 3.46643,-7.28987 4.05047,-7.91969 0.58403,-0.62982 2.166,-3.69073 3.5155,-6.80205 1.34949,-3.11131 2.91218,-6.17221 3.47264,-6.80203 0.56046,-0.62982 2.36388,-4.19369 4.00761,-7.9197 1.64373,-3.72601 3.51991,-7.3391 4.16929,-8.0291 0.64938,-0.69 2.39244,-4.19844 3.87347,-7.79655 1.48102,-3.5981 3.22407,-7.10655 3.87345,-7.79653 0.64939,-0.69 2.52556,-4.3031 4.16929,-8.02911 1.64373,-3.72601 3.47103,-7.28988 4.06067,-7.91969 0.58963,-0.62982 2.41693,-4.19369 4.06065,-7.9197 1.64373,-3.726 3.4775,-7.28987 4.07504,-7.91968 0.59754,-0.62982 1.54514,-2.41792 2.10579,-3.97358 0.56063,-1.55566 3.29128,-7.15601 6.06808,-12.44523 2.77681,-5.28922 8.26317,-15.9808 12.19191,-23.75907 3.92874,-7.77827 9.11326,-17.96073 11.52114,-22.6277 2.4079,-4.66695 6.65335,-13.06747 9.43433,-18.66784 2.78098,-5.60035 6.51326,-12.82382 8.29393,-16.05216 1.78069,-3.22834 3.24135,-6.28308 3.24594,-6.78831 0.004,-0.50523 0.97305,-2.44596 2.15213,-4.31276 1.17908,-1.86678 3.38819,-6.19433 4.90913,-9.61676 1.52094,-3.42244 3.29666,-6.78715 3.94603,-7.47715 0.64938,-0.69 2.36454,-4.13063 3.81145,-7.64587 1.44691,-3.51524 3.59145,-7.5328 4.76565,-8.92793 1.95552,-2.32344 2.1035,1.64624 1.76114,47.24434 -0.36148,48.14154 -0.46893,49.94857 -3.26266,54.87214 -3.05128,5.37748 -8.35951,16.42238 -13.32178,27.71891 -1.64006,3.73357 -3.65892,8.06111 -4.48638,9.61677 -2.98332,5.60888 -8.6487,17.67346 -11.42258,24.32477 -1.55705,3.73357 -3.57777,7.80655 -4.49047,9.05108 -0.91272,1.24451 -2.71701,5.06294 -4.00955,8.48538 -1.29252,3.42243 -2.88429,6.70628 -3.53723,7.29742 -0.65294,0.59116 -1.18717,1.73668 -1.18717,2.54562 0,1.14914 5.03243,1.4708 23.01041,1.4708 h 23.01041 v 20.36492 20.36492 h -32.99634 c -26.30642,0 -33.30872,0.31463 -34.53716,1.55185 -1.43712,1.4474 -2.80707,4.433 -12.26642,26.73277 -1.97968,4.66695 -4.24449,9.50362 -5.03292,10.74814 -0.78843,1.24452 -2.50898,5.06295 -3.82347,8.48539 -1.31449,3.42244 -2.84712,6.73174 -3.40583,7.35399 -0.55871,0.62226 -2.42531,4.82253 -4.14799,9.33393 l -3.13214,8.20253 h -28.83498 c -18.93944,0 -28.83497,-0.40117 -28.83497,-1.16899 z"
                   style="fill:#2396f3;fill-opacity:1;stroke:#2396f3;stroke-width:1.23749328;stroke-opacity:1" />
                <path
                   inkscape:connector-curvature="0"
                   id="path1227"
                   d="m 397.8355,413.88096 c 4.65282,-15.78745 11.54221,-36.81658 15.30977,-46.73136 3.76757,-9.91478 6.85013,-19.08611 6.85013,-20.38071 0,-1.2946 10.2336,-33.69404 22.74132,-71.99873 12.50774,-38.30471 22.74134,-71.26172 22.74134,-73.23776 0,-1.97607 2.91721,-10.26218 6.48268,-18.41366 3.56549,-8.15145 8.53733,-22.46302 11.04853,-31.80346 2.51123,-9.3404 7.43143,-24.64947 10.93381,-34.02014 6.28625,-16.81895 6.36896,-14.84111 6.44481,154.12637 l 0.0769,171.16399 h -55.54444 -55.54442 z"
                   style="fill:#2396f3;fill-opacity:1;stroke:#2396f3;stroke-width:3.85722113;stroke-opacity:1" />
                <path
                   inkscape:connector-curvature="0"
                   id="path1229"
                   d="M 502.21239,54.646018 292.0354,136.50442"
                   style="fill:none;stroke:#2396f3;stroke-width:1px;stroke-linecap:butt;stroke-linejoin:miter;stroke-opacity:1" />
                <path
                   inkscape:connector-curvature="0"
                   id="path1231"
                   d="M 503.09735,57.271881 292.0354,136.50442 Z"
                   style="fill:none;stroke:#2396f3;stroke-width:1px;stroke-linecap:butt;stroke-linejoin:miter;stroke-opacity:1" />
                <path
                   inkscape:connector-curvature="0"
                   id="path1233"
                   d="M 292.0354,136.50442 324.11504,431.85841 502.21239,536.9469 V 54.646018 Z"
                   style="fill:none;stroke:#2396f3;stroke-width:1px;stroke-linecap:butt;stroke-linejoin:miter;stroke-opacity:1" />
                <path
                   inkscape:connector-curvature="0"
                   id="path1217"
                   d="m 502.69474,533.65016 c -0.65277,-2.45932 -0.74074,-42.88865 -0.71616,-329.12764 0.0108,-125.668184 0.2353,-146.414436 1.59004,-146.934299 0.86761,-0.332932 13.18785,3.461605 27.37832,8.432305 14.19046,4.970699 26.29864,9.130573 26.90704,9.244165 0.60841,0.11359 1.60398,0.513465 2.21239,0.88861 0.60841,0.375146 3.59513,1.430349 6.63717,2.344895 12.04803,3.622077 143.92673,51.425644 149.05973,54.031374 3.67789,1.86705 4.1476,2.57361 4.14267,6.23156 -0.009,6.16834 -19.69489,173.96798 -29.42518,250.80717 -3.84952,30.39939 -5.47947,40.30991 -6.88792,41.8806 -2.23236,2.48951 -18.76486,12.30684 -103.61496,61.52868 -80.5567,46.73122 -74.30699,43.16151 -75.56575,43.16151 -0.58121,0 -1.35404,-1.12002 -1.71739,-2.48893 z"
                   style="fill:#0069c0;fill-opacity:1;stroke:#2396f3;stroke-width:1.10619473;stroke-opacity:1" />
                <path
                   inkscape:connector-curvature="0"
                   id="path1223"
                   d="m 496.46018,532.35815 c -2.12943,-1.39797 -11.0896,-6.77282 -19.91151,-11.9441 -80.06414,-46.93262 -149.03485,-87.68876 -150.18914,-88.74972 -0.95114,-0.87423 -6.55759,-48.68631 -17.33101,-147.79972 -8.75879,-80.57909 -15.84181,-146.58817 -15.74007,-146.68685 0.10175,-0.0987 45.98146,-17.35704 101.95491,-38.351929 55.97345,-20.994889 102.66576,-38.524196 103.76068,-38.954014 1.88975,-0.741835 1.97395,0.614806 1.65929,26.736258 l -0.33147,27.517745 -3.13999,6.49918 c -1.727,3.57456 -3.79115,8.30354 -4.58699,10.50885 -0.79585,2.20532 -2.24207,5.50303 -3.21382,7.32825 -0.97175,1.82522 -1.76988,3.67946 -1.77363,4.12053 -0.004,0.44107 -1.50017,4.0625 -3.32539,8.04761 -1.82523,3.98512 -3.31859,7.5439 -3.31859,7.90839 0,0.60923 -5.75665,14.11111 -9.36235,21.95887 -0.83862,1.82522 -6.83925,16.01217 -13.33474,31.52655 -6.4955,15.51438 -12.18768,28.95751 -12.6493,29.87362 -0.46162,0.9161 -3.44824,7.88513 -6.63695,15.48672 -3.18871,7.6016 -6.9344,16.31001 -8.32376,19.35205 -1.38937,3.04203 -2.89537,6.77544 -3.34667,8.29646 -0.4513,1.52102 -1.22009,3.26931 -1.70843,3.88511 -0.48834,0.6158 -1.98699,4.10031 -3.33033,7.74336 -1.34334,3.64306 -2.83671,7.12757 -3.31859,7.74337 -0.48188,0.61579 -1.97524,4.10031 -3.31858,7.74336 -1.34334,3.64305 -2.87665,7.17571 -3.40736,7.85034 -0.5307,0.67463 -1.95523,4.10496 -3.16559,7.62296 -1.21037,3.51799 -2.63489,6.94832 -3.1656,7.62295 -0.53071,0.67463 -2.01559,4.07782 -3.29972,7.56265 -1.28414,3.48483 -2.81731,7.21823 -3.40705,8.29646 -0.58974,1.07822 -4.62869,10.4228 -8.97546,20.76572 -4.34676,10.34292 -8.58651,20.29868 -9.42166,22.1239 -2.12783,4.65035 -11.55352,27.3453 -11.55352,27.81827 0,0.71653 46.97568,0.1797 49.63973,-0.56728 2.06692,-0.57953 3.31455,-2.61815 5.85622,-9.56894 9.75533,-26.67829 14.16803,-38.43849 15.76625,-42.01834 0.81487,-1.82522 2.35376,-6.05641 3.41977,-9.40265 1.06601,-3.34624 2.43107,-6.70631 3.03347,-7.46682 0.82142,-1.03701 7.69952,-1.38274 27.5085,-1.38274 h 26.41323 v 91.81416 c 0,50.49779 -0.12445,91.78424 -0.27655,91.74767 -0.1521,-0.0366 -2.01881,-1.21029 -4.14823,-2.60826 z"
                   style="fill:#2396f3;fill-opacity:1;stroke:#2396f3;stroke-width:1.10619473;stroke-opacity:1" />
                <g
                   id="g1035">
                  <flowRoot
                     xml:space="preserve"
                     id="flowRoot1253"
                     style="font-style:normal;font-weight:normal;font-size:40px;line-height:1.25;font-family:sans-serif;letter-spacing:0px;word-spacing:0px;fill:#000000;fill-opacity:1;stroke:none"
                     transform="matrix(8.2675637,0,0,11.148321,-2435.0417,-1581.1635)"><flowRegion
                       id="flowRegion1255"><rect
                         id="rect1257"
                         width="353.9823"
                         height="286.50443"
                         x="330.7522"
                         y="144.24779" /></flowRegion><flowPara
                       id="flowPara1259"
                       style="font-style:normal;font-variant:normal;font-weight:300;font-stretch:normal;font-family:Roboto;-inkscape-font-specification:'Roboto Light';fill:#f5f5f5;fill-opacity:1">&lt;|&gt;</flowPara></flowRoot>                </g>
              </g>
            </g>
          </g>
        </g>
      </g>
    </g>
  </g>
</svg>
